<?xml version="1.0" standalone="no"?>
<!DOCTYPE svg PUBLIC "-//W3C//DTD SVG 20010904//EN"
 "http://www.w3.org/TR/2001/REC-SVG-20010904/DTD/svg10.dtd">
<svg version="1.0" xmlns="http://www.w3.org/2000/svg"
 width="1766.000000pt" height="1075.000000pt" viewBox="0 0 1766.000000 1075.000000"
 preserveAspectRatio="xMidYMid meet">

<g transform="translate(0.000000,1075.000000) scale(0.100000,-0.100000)"
fill="#000000" stroke="none">
<path d="M15016 10621 c-4 -5 -2 -12 3 -15 5 -4 12 -2 15 3 4 5 2 12 -3 15 -5
4 -12 2 -15 -3z"/>
<path d="M15550 10504 c0 -9 5 -14 12 -12 18 6 21 28 4 28 -9 0 -16 -7 -16
-16z"/>
<path d="M15375 10420 c-3 -5 1 -10 10 -10 9 0 13 5 10 10 -3 6 -8 10 -10 10
-2 0 -7 -4 -10 -10z"/>
<path d="M16393 10399 c-15 -15 -5 -39 17 -39 22 0 32 24 17 39 -6 6 -14 11
-17 11 -3 0 -11 -5 -17 -11z"/>
<path d="M15026 10327 c-23 -17 -17 -52 8 -52 29 0 44 31 25 50 -12 13 -18 13
-33 2z"/>
<path d="M15803 10303 c-7 -3 -13 -13 -13 -24 0 -14 7 -19 25 -19 18 0 25 5
25 19 0 20 -17 31 -37 24z"/>
<path d="M15304 10259 c-10 -17 13 -36 27 -22 12 12 4 33 -11 33 -5 0 -12 -5
-16 -11z"/>
<path d="M15064 10245 c-10 -25 4 -45 30 -45 28 0 37 17 24 43 -11 21 -46 23
-54 2z"/>
<path d="M14790 10200 c0 -5 5 -10 10 -10 6 0 10 5 10 10 0 6 -4 10 -10 10 -5
0 -10 -4 -10 -10z"/>
<path d="M15130 10120 c0 -5 5 -10 10 -10 6 0 10 5 10 10 0 6 -4 10 -10 10 -5
0 -10 -4 -10 -10z"/>
<path d="M15002 10068 c-8 -8 -9 -15 -1 -25 15 -17 39 -17 39 1 0 22 -24 38
-38 24z"/>
<path d="M16118 10068 c-25 -20 -31 -53 -13 -68 13 -11 22 -10 50 3 36 17 45
43 23 65 -15 15 -40 15 -60 0z"/>
<path d="M16042 9969 c2 -6 8 -10 13 -10 5 0 11 4 13 10 2 6 -4 11 -13 11 -9
0 -15 -5 -13 -11z"/>
<path d="M15269 9934 c-10 -13 -10 -17 1 -24 17 -10 30 -4 30 15 0 22 -16 26
-31 9z"/>
<path d="M15590 9916 c0 -9 7 -16 16 -16 17 0 14 22 -4 28 -7 2 -12 -3 -12
-12z"/>
<path d="M14974 9885 c-4 -9 -2 -21 4 -27 16 -16 47 -5 47 17 0 26 -42 34 -51
10z"/>
<path d="M14875 9850 c-3 -5 1 -10 10 -10 9 0 13 5 10 10 -3 6 -8 10 -10 10
-2 0 -7 -4 -10 -10z"/>
<path d="M16080 9822 c-19 -5 -40 -32 -40 -49 0 -7 12 -20 26 -30 26 -16 27
-16 45 6 11 13 19 32 19 42 0 21 -28 39 -50 31z"/>
<path d="M15079 9804 c-11 -14 -10 -18 6 -30 16 -12 21 -12 32 -1 16 15 7 47
-12 47 -7 0 -19 -7 -26 -16z"/>
<path d="M15333 9813 c-19 -7 -16 -40 4 -47 15 -6 32 8 33 25 0 12 -25 26 -37
22z"/>
<path d="M15440 9780 c0 -5 18 -10 40 -10 22 0 40 5 40 10 0 6 -18 10 -40 10
-22 0 -40 -4 -40 -10z"/>
<path d="M15170 9705 c-7 -8 -21 -15 -32 -15 -10 0 -32 -7 -48 -15 -25 -13
-30 -22 -30 -54 0 -29 7 -44 29 -64 24 -21 32 -23 41 -12 6 7 21 16 34 19 26
6 38 43 29 87 -3 15 0 30 6 33 11 7 4 36 -9 36 -4 0 -13 -7 -20 -15z"/>
<path d="M15830 9705 c0 -11 7 -15 23 -13 12 2 22 8 22 13 0 6 -10 11 -22 13
-16 2 -23 -2 -23 -13z"/>
<path d="M15486 9673 c-11 -11 -6 -23 9 -23 8 0 15 4 15 9 0 13 -16 22 -24 14z"/>
<path d="M10672 9638 c-28 -28 5 -66 40 -47 24 13 23 36 -1 49 -24 13 -24 13
-39 -2z"/>
<path d="M14670 9560 c0 -5 5 -10 10 -10 6 0 10 5 10 10 0 6 -4 10 -10 10 -5
0 -10 -4 -10 -10z"/>
<path d="M15647 9549 c-20 -27 -10 -58 19 -65 30 -8 54 11 54 40 0 46 -48 62
-73 25z"/>
<path d="M15190 9516 c0 -8 4 -17 9 -20 11 -7 33 18 24 27 -12 12 -33 7 -33
-7z"/>
<path d="M15360 9500 c0 -5 5 -10 10 -10 6 0 10 5 10 10 0 6 -4 10 -10 10 -5
0 -10 -4 -10 -10z"/>
<path d="M15280 9486 c-6 -8 -10 -25 -8 -38 2 -18 9 -23 33 -23 24 0 31 5 33
24 3 15 -3 30 -14 38 -23 17 -29 16 -44 -1z"/>
<path d="M15190 9435 c0 -9 5 -15 11 -13 6 2 11 8 11 13 0 5 -5 11 -11 13 -6
2 -11 -4 -11 -13z"/>
<path d="M14927 9424 c-9 -10 2 -24 19 -24 8 0 14 7 14 15 0 15 -21 21 -33 9z"/>
<path d="M10733 9294 c-16 -26 -16 -27 7 -46 32 -26 65 -20 65 12 1 61 -41 81
-72 34z"/>
<path d="M14235 9190 c-3 -5 -1 -10 4 -10 6 0 11 5 11 10 0 6 -2 10 -4 10 -3
0 -8 -4 -11 -10z"/>
<path d="M14622 9168 c-19 -25 -23 -55 -8 -67 12 -10 19 -8 35 8 25 25 27 56
5 65 -21 8 -20 8 -32 -6z"/>
<path d="M11130 9108 c-43 -46 -18 -98 47 -98 37 0 53 16 53 55 0 59 -60 85
-100 43z"/>
<path d="M14685 9070 c-3 -5 1 -10 9 -10 9 0 16 5 16 10 0 6 -4 10 -9 10 -6 0
-13 -4 -16 -10z"/>
<path d="M15216 9064 c-19 -18 -20 -28 -6 -55 20 -37 80 -18 80 26 0 42 -44
59 -74 29z"/>
<path d="M15959 9029 c-26 -28 -28 -36 -23 -77 6 -56 18 -72 53 -72 46 0 106
85 91 126 -10 26 -48 54 -73 54 -11 0 -32 -14 -48 -31z"/>
<path d="M1440 9025 c-15 -18 -7 -43 16 -52 17 -6 47 23 41 41 -6 18 -45 25
-57 11z"/>
<path d="M12788 8948 c-19 -19 -24 -58 -8 -58 6 0 10 7 10 15 0 9 7 18 15 21
16 6 20 30 8 37 -5 2 -16 -4 -25 -15z"/>
<path d="M12595 8940 c-6 -9 49 -70 63 -70 7 0 12 8 12 18 0 9 3 27 6 38 5 20
2 21 -36 20 -23 0 -43 -3 -45 -6z"/>
<path d="M10156 8871 c-24 -26 -13 -56 26 -72 27 -11 32 -10 44 6 22 30 -2 85
-36 85 -9 0 -25 -9 -34 -19z"/>
<path d="M14417 8834 c-9 -10 2 -24 19 -24 8 0 14 7 14 15 0 15 -21 21 -33 9z"/>
<path d="M13654 8796 c-7 -19 3 -36 22 -36 10 0 14 8 12 22 -4 26 -26 36 -34
14z"/>
<path d="M12930 8790 c0 -5 5 -10 10 -10 6 0 10 5 10 10 0 6 -4 10 -10 10 -5
0 -10 -4 -10 -10z"/>
<path d="M15914 8785 c-4 -9 -2 -21 4 -27 15 -15 44 -1 40 19 -4 23 -36 29
-44 8z"/>
<path d="M10680 8751 c0 -11 4 -22 8 -25 14 -9 35 12 29 28 -9 23 -37 20 -37
-3z"/>
<path d="M12916 8762 c-3 -6 -1 -14 5 -17 15 -10 25 3 12 16 -7 7 -13 7 -17 1z"/>
<path d="M15410 8735 c0 -8 5 -15 10 -15 6 0 10 7 10 15 0 8 -4 15 -10 15 -5
0 -10 -7 -10 -15z"/>
<path d="M10187 8718 c-21 -11 -22 -31 -3 -47 20 -16 46 -3 46 24 0 27 -19 37
-43 23z"/>
<path d="M1522 8703 c-7 -2 -17 -14 -23 -25 -13 -25 13 -58 47 -58 30 0 34 8
25 50 -7 34 -22 44 -49 33z"/>
<path d="M12720 8698 c0 -20 44 -42 66 -34 15 6 16 9 3 21 -22 21 -69 30 -69
13z"/>
<path d="M8260 8619 c0 -9 7 -22 15 -29 19 -16 19 0 0 26 -12 16 -14 16 -15 3z"/>
<path d="M13550 8610 c0 -5 5 -10 10 -10 6 0 10 5 10 10 0 6 -4 10 -10 10 -5
0 -10 -4 -10 -10z"/>
<path d="M12610 8540 c0 -5 5 -10 10 -10 6 0 10 5 10 10 0 6 -4 10 -10 10 -5
0 -10 -4 -10 -10z"/>
<path d="M13001 8523 c-12 -25 -10 -30 14 -51 21 -18 30 -20 41 -11 21 17 17
37 -12 64 -15 14 -28 25 -29 25 -1 0 -7 -12 -14 -27z"/>
<path d="M14481 8521 c-12 -8 -13 -14 -3 -35 13 -30 24 -32 43 -10 22 27 -11
63 -40 45z"/>
<path d="M1908 8506 c-10 -7 -22 -24 -27 -39 -23 -60 70 -98 111 -45 24 31 22
50 -5 76 -26 25 -54 28 -79 8z"/>
<path d="M12634 8498 c-4 -15 -1 -25 12 -35 26 -19 41 -16 48 10 10 40 7 47
-23 47 -22 0 -32 -6 -37 -22z"/>
<path d="M12395 8501 c-16 -3 -28 -11 -26 -16 10 -22 51 -45 78 -44 15 1 35
-1 44 -5 28 -12 32 12 7 44 -24 30 -44 34 -103 21z"/>
<path d="M13882 8436 c1 -10 8 -17 13 -17 15 1 12 24 -3 29 -9 3 -13 -2 -10
-12z"/>
<path d="M15455 8421 c-7 -12 12 -24 25 -16 11 7 4 25 -10 25 -5 0 -11 -4 -15
-9z"/>
<path d="M15035 8410 c-3 -5 -1 -10 4 -10 6 0 11 5 11 10 0 6 -2 10 -4 10 -3
0 -8 -4 -11 -10z"/>
<path d="M13760 8350 c-8 -5 -11 -12 -7 -16 4 -4 13 -2 19 4 15 15 7 24 -12
12z"/>
<path d="M13800 8353 c0 -5 9 -14 20 -21 11 -7 20 -8 20 -2 0 5 -9 14 -20 20
-11 6 -20 7 -20 3z"/>
<path d="M13960 8330 c-22 -31 -18 -52 12 -78 21 -17 78 21 78 50 -1 59 -56
76 -90 28z"/>
<path d="M14112 8275 c-27 -23 -27 -23 -9 -59 14 -31 21 -36 51 -36 55 0 86
59 49 92 -32 27 -62 28 -91 3z"/>
<path d="M927 8262 c-31 -34 -18 -64 35 -77 38 -10 55 23 33 65 -18 34 -44 39
-68 12z"/>
<path d="M13290 8261 c0 -4 -12 -6 -26 -3 -25 4 -26 3 -20 -25 6 -25 4 -31
-13 -36 -24 -6 -29 -47 -7 -47 7 0 26 -7 42 -14 37 -20 53 -8 21 16 -26 19
-27 48 -1 48 15 0 34 30 34 54 0 9 -7 16 -15 16 -8 0 -15 -4 -15 -9z"/>
<path d="M13597 8255 c-4 -8 -2 -17 4 -21 12 -7 41 15 33 27 -8 14 -31 11 -37
-6z"/>
<path d="M15257 8264 c-13 -13 -7 -42 10 -48 21 -8 36 6 31 30 -3 19 -29 30
-41 18z"/>
<path d="M15475 8231 c-6 -11 9 -23 19 -14 9 9 7 23 -3 23 -6 0 -12 -4 -16 -9z"/>
<path d="M12850 8197 c-17 -27 -18 -34 -5 -46 12 -12 17 -12 40 3 17 11 24 23
21 33 -3 8 -6 18 -6 23 0 4 -7 10 -15 14 -10 4 -22 -5 -35 -27z"/>
<path d="M12660 8159 c-12 -22 -20 -48 -18 -57 3 -14 7 -13 26 8 60 67 63 74
36 84 -23 9 -22 10 -44 -35z"/>
<path d="M15859 8182 c-24 -20 -21 -52 4 -52 21 0 50 37 44 55 -8 20 -20 19
-48 -3z"/>
<path d="M1451 8146 c-9 -10 -8 -16 4 -26 19 -16 41 1 32 24 -8 20 -21 20 -36
2z"/>
<path d="M14960 8150 c0 -5 5 -10 10 -10 6 0 10 5 10 10 0 6 -4 10 -10 10 -5
0 -10 -4 -10 -10z"/>
<path d="M14320 8121 c0 -15 6 -21 21 -21 25 0 22 33 -4 38 -12 2 -17 -3 -17
-17z"/>
<path d="M952 8108 c-18 -18 -14 -46 8 -53 25 -8 40 1 40 25 0 25 -33 43 -48
28z"/>
<path d="M13025 8083 c-4 -17 -2 -29 4 -31 6 -2 11 -9 11 -15 0 -7 9 -18 20
-25 17 -11 21 -10 26 5 3 10 10 26 15 35 20 39 5 58 -46 58 -17 0 -25 -7 -30
-27z m60 -23 c3 -5 -3 -10 -14 -10 -12 0 -21 5 -21 10 0 6 6 10 14 10 8 0 18
-4 21 -10z"/>
<path d="M8249 8084 c-15 -18 -2 -47 24 -52 25 -5 40 33 21 52 -19 20 -28 20
-45 0z"/>
<path d="M12885 8070 c-9 -15 14 -40 36 -40 24 0 33 18 19 35 -14 17 -46 20
-55 5z"/>
<path d="M12328 8063 c-18 -4 -24 -24 -12 -36 10 -10 44 12 44 28 0 15 -2 16
-32 8z"/>
<path d="M12520 8060 c0 -5 7 -10 15 -10 8 0 15 5 15 10 0 6 -7 10 -15 10 -8
0 -15 -4 -15 -10z"/>
<path d="M15340 7990 c0 -5 5 -10 10 -10 6 0 10 5 10 10 0 6 -4 10 -10 10 -5
0 -10 -4 -10 -10z"/>
<path d="M12710 7980 c-12 -8 -11 -10 8 -10 12 0 22 5 22 10 0 13 -11 13 -30
0z"/>
<path d="M14734 7954 c-8 -30 6 -47 32 -42 23 4 31 47 12 59 -23 15 -37 10
-44 -17z"/>
<path d="M12170 7965 c0 -3 10 -17 23 -30 12 -13 28 -31 36 -40 8 -10 17 -13
22 -8 14 14 -1 43 -22 43 -12 0 -19 7 -19 20 0 13 -7 20 -20 20 -11 0 -20 -2
-20 -5z"/>
<path d="M13320 7953 c-19 -8 -34 -23 -49 -52 -16 -28 -9 -35 37 -37 73 -5
104 34 62 76 -21 21 -26 22 -50 13z"/>
<path d="M15232 7948 c-22 -22 -14 -40 16 -36 19 2 27 9 27 23 0 23 -25 31
-43 13z"/>
<path d="M11930 7931 c-13 -5 -15 -16 -11 -69 2 -24 43 -30 63 -10 23 23 23
41 1 60 -27 23 -37 26 -53 19z"/>
<path d="M12426 7933 c-9 -9 -7 -33 3 -33 12 0 22 28 12 34 -5 3 -11 3 -15 -1z"/>
<path d="M13717 7924 c-14 -15 -6 -34 14 -34 14 0 19 5 17 17 -3 18 -20 27
-31 17z"/>
<path d="M14187 7912 c-22 -24 -21 -39 2 -52 28 -14 56 -12 71 5 10 12 7 19
-16 40 -32 30 -36 30 -57 7z"/>
<path d="M13100 7901 c-17 -33 -12 -51 14 -51 31 0 36 8 29 43 -6 31 -28 36
-43 8z"/>
<path d="M12470 7896 c0 -18 17 -29 30 -21 8 5 7 11 -1 21 -15 18 -29 18 -29
0z"/>
<path d="M15153 7894 c-3 -8 0 -21 6 -27 10 -9 16 -8 26 7 8 10 12 23 9 27 -9
15 -34 10 -41 -7z"/>
<path d="M14330 7849 c0 -5 5 -7 10 -4 6 3 10 8 10 11 0 2 -4 4 -10 4 -5 0
-10 -5 -10 -11z"/>
<path d="M14955 7820 c-15 -17 -16 -24 -7 -45 18 -40 82 -26 82 18 0 47 -43
62 -75 27z"/>
<path d="M15726 7765 c-29 -27 -32 -51 -12 -100 11 -27 22 -35 49 -40 63 -12
104 29 92 92 -4 24 -16 40 -38 53 -42 26 -59 25 -91 -5z"/>
<path d="M8320 7752 c-27 -22 -23 -43 15 -68 36 -24 57 -4 46 46 -8 41 -29 48
-61 22z"/>
<path d="M15330 7751 c0 -24 13 -33 34 -25 21 8 21 30 0 38 -26 10 -34 7 -34
-13z"/>
<path d="M12923 7743 c-15 -3 -23 -12 -23 -24 0 -11 -7 -22 -15 -25 -20 -8
-19 -17 5 -32 19 -12 20 -11 14 14 -7 25 -6 26 27 19 19 -4 40 -12 47 -18 10
-8 16 -7 22 4 6 9 1 22 -17 41 -15 16 -29 27 -32 27 -3 -1 -16 -4 -28 -6z"/>
<path d="M14322 7738 c6 -18 28 -21 28 -4 0 9 -7 16 -16 16 -9 0 -14 -5 -12
-12z"/>
<path d="M15115 7740 c3 -5 8 -10 11 -10 2 0 4 5 4 10 0 6 -5 10 -11 10 -5 0
-7 -4 -4 -10z"/>
<path d="M13550 7701 c0 -24 59 -48 72 -29 15 24 8 35 -23 42 -46 9 -49 8 -49
-13z"/>
<path d="M15145 7710 c3 -5 8 -10 11 -10 2 0 4 5 4 10 0 6 -5 10 -11 10 -5 0
-7 -4 -4 -10z"/>
<path d="M12170 7665 c0 -9 5 -15 11 -13 6 2 11 8 11 13 0 5 -5 11 -11 13 -6
2 -11 -4 -11 -13z"/>
<path d="M12585 7660 c-3 -5 -1 -10 4 -10 6 0 11 5 11 10 0 6 -2 10 -4 10 -3
0 -8 -4 -11 -10z"/>
<path d="M13177 7635 c-9 -20 -17 -37 -17 -39 0 -8 82 -36 91 -31 17 11 9 43
-17 74 -14 17 -29 31 -33 31 -4 0 -15 -16 -24 -35z"/>
<path d="M12125 7649 c-10 -15 1 -23 20 -15 9 3 13 10 10 16 -8 13 -22 13 -30
-1z"/>
<path d="M14320 7620 c-16 -16 -18 -24 -9 -50 9 -24 17 -30 39 -30 34 0 60 23
60 54 0 46 -54 62 -90 26z"/>
<path d="M14577 7594 c-23 -12 -26 -19 -21 -42 8 -31 20 -42 50 -42 46 0 59
60 19 86 -17 10 -25 10 -48 -2z"/>
<path d="M8713 7558 c-33 -38 -35 -57 -8 -84 29 -29 58 -31 85 -4 24 24 26 57
4 88 -20 28 -55 28 -81 0z"/>
<path d="M14810 7509 c-7 -11 -9 -32 -6 -45 5 -17 2 -24 -8 -24 -23 0 -75 -49
-96 -90 -15 -30 -17 -44 -9 -71 17 -62 66 -99 128 -99 22 0 43 -4 46 -10 12
-20 27 -10 21 14 -4 16 2 32 19 52 49 57 40 119 -27 190 -24 26 -28 36 -20 51
12 22 -2 53 -23 53 -8 0 -19 -9 -25 -21z"/>
<path d="M12570 7466 c0 -15 37 -32 47 -22 9 8 -17 36 -33 36 -8 0 -14 -6 -14
-14z"/>
<path d="M12946 7425 c-7 -34 -2 -55 12 -55 4 0 8 20 9 45 2 53 -12 60 -21 10z"/>
<path d="M14186 7435 c-3 -9 1 -18 10 -22 19 -7 39 11 30 26 -10 16 -33 13
-40 -4z"/>
<path d="M12720 7416 c0 -9 7 -16 16 -16 17 0 14 22 -4 28 -7 2 -12 -3 -12
-12z"/>
<path d="M12467 7394 c-9 -10 2 -24 18 -24 9 0 12 6 9 15 -6 16 -17 19 -27 9z"/>
<path d="M15302 7368 c2 -12 10 -23 18 -23 22 0 19 39 -3 43 -15 3 -18 -1 -15
-20z"/>
<path d="M7736 7324 c-22 -22 -20 -50 6 -68 50 -35 86 -5 63 52 -16 36 -43 42
-69 16z"/>
<path d="M12895 7290 c-15 -25 5 -57 47 -73 46 -19 64 -11 53 22 -5 16 -15 21
-41 21 -23 0 -34 5 -34 14 0 19 -17 29 -25 16z"/>
<path d="M14962 7291 c4 -13 18 -16 19 -4 0 4 -5 9 -11 12 -7 2 -11 -2 -8 -8z"/>
<path d="M15206 7279 c-33 -26 -33 -58 -1 -93 29 -32 72 -34 103 -6 29 28 28
58 -5 92 -32 33 -61 35 -97 7z"/>
<path d="M13246 7281 c-10 -15 13 -63 27 -58 17 5 21 35 7 52 -14 17 -26 19
-34 6z"/>
<path d="M12287 7253 c-4 -3 -7 -16 -7 -28 0 -11 -5 -26 -12 -33 -9 -9 -9 -12
0 -12 7 0 12 5 12 10 0 21 28 9 34 -15 8 -31 17 -31 46 -1 28 31 21 59 -13 51
-19 -5 -25 -2 -30 14 -5 21 -18 27 -30 14z"/>
<path d="M15022 7248 c-23 -23 -7 -68 25 -68 7 0 18 11 25 25 18 40 -20 73
-50 43z"/>
<path d="M8257 7206 c-8 -20 20 -43 35 -28 14 14 3 42 -16 42 -7 0 -16 -6 -19
-14z"/>
<path d="M7757 7164 c-10 -11 -9 -42 3 -49 20 -12 51 6 48 28 -3 22 -36 35
-51 21z"/>
<path d="M15100 7105 c-10 -11 -10 -19 -2 -27 15 -15 44 -2 40 19 -4 23 -22
27 -38 8z"/>
<path d="M1743 7073 c-19 -7 -16 -50 3 -57 19 -7 44 10 44 30 0 16 -30 33 -47
27z"/>
<path d="M12990 7070 c0 -5 5 -10 11 -10 5 0 7 5 4 10 -3 6 -8 10 -11 10 -2 0
-4 -4 -4 -10z"/>
<path d="M4782 6820 c-23 -19 -29 -45 -12 -55 6 -3 10 1 10 10 0 8 6 18 14 21
17 6 28 31 18 38 -4 2 -17 -4 -30 -14z"/>
<path d="M15652 6832 c-17 -12 -4 -42 18 -42 22 0 32 24 17 39 -13 13 -18 13
-35 3z"/>
<path d="M4644 6819 c-3 -6 -17 -8 -30 -5 -16 4 -24 2 -24 -6 1 -16 45 -68 58
-68 9 0 22 46 22 76 0 17 -16 18 -26 3z"/>
<path d="M14696 6813 c-8 -21 17 -48 38 -40 9 4 16 18 16 32 0 20 -5 25 -24
25 -13 0 -27 -8 -30 -17z"/>
<path d="M5674 6795 c-4 -8 -3 -22 0 -31 8 -21 50 -14 54 10 6 31 -43 50 -54
21z"/>
<path d="M1807 6732 c-10 -10 -17 -24 -17 -32 0 -18 31 -39 58 -40 18 0 22 5
22 33 0 54 -32 73 -63 39z"/>
<path d="M4615 6710 c3 -5 8 -10 11 -10 2 0 4 5 4 10 0 6 -5 10 -11 10 -5 0
-7 -4 -4 -10z"/>
<path d="M4920 6660 c0 -5 5 -10 10 -10 6 0 10 5 10 10 0 6 -4 10 -10 10 -5 0
-10 -4 -10 -10z"/>
<path d="M4905 6630 c-3 -5 1 -10 10 -10 9 0 13 5 10 10 -3 6 -8 10 -10 10 -2
0 -7 -4 -10 -10z"/>
<path d="M4710 6572 c0 -19 39 -44 59 -37 30 9 26 21 -10 34 -38 13 -49 14
-49 3z"/>
<path d="M2191 6534 c-39 -49 -17 -94 44 -94 59 0 82 62 39 105 -24 23 -60 18
-83 -11z"/>
<path d="M15714 6489 c-19 -21 -18 -21 5 -40 34 -28 57 -21 52 16 -1 17 -5 33
-8 38 -8 13 -30 7 -49 -14z"/>
<path d="M5542 6481 c2 -7 7 -12 11 -12 12 1 9 15 -3 20 -7 2 -11 -2 -8 -8z"/>
<path d="M5748 6469 c-24 -13 -23 -42 1 -63 32 -29 56 -17 56 29 0 33 -4 40
-20 42 -11 2 -28 -2 -37 -8z"/>
<path d="M4600 6410 c0 -5 7 -10 16 -10 8 0 12 5 9 10 -3 6 -10 10 -16 10 -5
0 -9 -4 -9 -10z"/>
<path d="M4994 6396 c-10 -21 -8 -28 13 -51 24 -25 26 -25 44 -9 20 18 18 26
-14 62 -26 28 -29 27 -43 -2z"/>
<path d="M4626 6374 c-7 -18 19 -54 38 -54 14 0 34 42 28 58 -6 18 -59 15 -66
-4z"/>
<path d="M4390 6373 c-41 -8 -43 -19 -8 -40 29 -18 128 -31 128 -17 0 3 -10
18 -22 34 -22 30 -37 34 -98 23z"/>
<path d="M1228 6309 c-28 -16 -23 -63 7 -77 14 -7 32 -12 40 -12 23 0 30 47
11 75 -18 27 -31 30 -58 14z"/>
<path d="M16104 6295 c-22 -34 -12 -71 22 -79 34 -9 74 17 74 47 -1 56 -66 78
-96 32z"/>
<path d="M6137 6272 c-31 -33 -34 -62 -9 -85 25 -23 68 -21 92 3 25 25 25 51
3 78 -30 34 -56 35 -86 4z"/>
<path d="M5750 6220 c-8 -5 -11 -12 -7 -16 4 -4 15 0 24 9 18 18 8 23 -17 7z"/>
<path d="M11458 6209 c-19 -20 -24 -59 -9 -59 5 0 12 9 16 19 3 11 12 22 20
25 8 3 12 12 9 21 -8 19 -15 18 -36 -6z"/>
<path d="M5800 6210 c0 -5 5 -10 10 -10 6 0 10 5 10 10 0 6 -4 10 -10 10 -5 0
-10 -4 -10 -10z"/>
<path d="M11330 6209 c0 -6 -12 -9 -27 -7 -35 4 -39 -13 -9 -45 29 -31 41 -34
50 -11 10 25 7 74 -4 74 -5 0 -10 -5 -10 -11z"/>
<path d="M1744 6185 c-7 -18 3 -35 21 -35 15 0 28 27 19 41 -8 14 -34 11 -40
-6z"/>
<path d="M5763 6170 c-42 -17 -21 -87 24 -78 9 2 24 16 33 31 14 26 14 29 -4
43 -22 16 -23 16 -53 4z"/>
<path d="M1244 6135 c-8 -21 2 -45 19 -45 21 0 38 25 31 44 -8 20 -43 21 -50
1z"/>
<path d="M5280 6131 c0 -4 -11 -6 -25 -3 -32 6 -35 -23 -2 -33 l22 -6 -25 -8
c-84 -26 -121 -66 -92 -99 27 -33 64 -32 80 1 11 22 16 25 32 17 13 -7 21 -7
25 1 4 6 5 11 4 12 -53 28 -60 43 -26 56 35 14 53 71 22 71 -8 0 -15 -4 -15
-9z"/>
<path d="M5591 6126 c-9 -10 -9 -16 -1 -21 12 -7 40 11 40 26 0 14 -26 10 -39
-5z"/>
<path d="M11290 6100 c0 -5 5 -10 10 -10 6 0 10 5 10 10 0 6 -4 10 -10 10 -5
0 -10 -4 -10 -10z"/>
<path d="M4840 6068 c-22 -36 -18 -48 14 -48 34 0 49 22 36 54 -13 34 -26 33
-50 -6z"/>
<path d="M15136 6064 c-9 -8 -16 -19 -16 -24 0 -17 32 -40 56 -40 20 0 24 5
24 28 0 48 -34 67 -64 36z"/>
<path d="M4650 6030 c-11 -21 -20 -46 -20 -55 0 -24 39 0 50 31 5 13 17 24 25
24 13 0 14 4 5 20 -16 31 -38 24 -60 -20z"/>
<path d="M11840 6020 c0 -47 2 -50 25 -50 15 0 25 6 25 14 0 7 7 19 15 26 20
17 19 30 -4 30 -10 0 -24 7 -31 15 -22 26 -30 16 -30 -35z"/>
<path d="M11600 6040 c0 -11 -5 -20 -11 -20 -5 0 -7 -5 -3 -11 8 -13 19 -2 29
29 4 13 2 22 -4 22 -6 0 -11 -9 -11 -20z"/>
<path d="M5017 5958 c-7 -25 37 -93 54 -83 18 12 10 45 -11 45 -11 0 -20 5
-20 11 0 7 11 8 31 4 28 -6 30 -5 27 17 -2 19 -10 24 -39 26 -31 3 -37 -1 -42
-20z"/>
<path d="M11397 5963 c-10 -10 23 -43 44 -43 23 0 32 15 16 28 -18 14 -52 23
-60 15z"/>
<path d="M15660 5945 c0 -8 7 -15 15 -15 8 0 15 7 15 15 0 8 -7 15 -15 15 -8
0 -15 -7 -15 -15z"/>
<path d="M4490 5940 c0 -4 11 -10 25 -12 14 -3 25 -2 25 2 0 4 -11 10 -25 12
-14 3 -25 2 -25 -2z"/>
<path d="M4880 5931 c0 -20 32 -37 50 -26 15 9 12 32 -6 39 -28 11 -44 6 -44
-13z"/>
<path d="M11990 5929 c-15 -26 -12 -33 7 -18 9 8 25 14 36 14 11 0 22 5 24 12
7 20 -57 12 -67 -8z"/>
<path d="M4318 5933 c-10 -2 -18 -11 -18 -19 0 -10 13 -14 45 -14 25 0 45 5
45 10 0 6 -7 10 -15 10 -8 0 -15 5 -15 10 0 10 -12 11 -42 3z"/>
<path d="M5687 5924 c-16 -16 -6 -35 16 -32 12 2 22 10 22 18 0 16 -26 25 -38
14z"/>
<path d="M15160 5905 c-15 -18 -5 -35 21 -35 12 0 19 7 19 19 0 24 -25 34 -40
16z"/>
<path d="M5187 5883 c-4 -3 -7 -17 -7 -30 0 -18 6 -23 24 -23 28 0 37 17 24
43 -9 17 -29 23 -41 10z"/>
<path d="M12220 5871 c0 -6 5 -13 10 -16 6 -3 10 1 10 9 0 9 -4 16 -10 16 -5
0 -10 -4 -10 -9z"/>
<path d="M4710 5850 c0 -5 4 -10 9 -10 6 0 13 5 16 10 3 6 -1 10 -9 10 -9 0
-16 -4 -16 -10z"/>
<path d="M4160 5834 c0 -3 11 -15 25 -26 14 -11 25 -26 25 -34 0 -8 9 -14 21
-14 15 0 19 4 15 16 -3 9 -6 18 -6 20 0 2 -9 4 -20 4 -13 0 -20 7 -20 20 0 13
-7 20 -20 20 -11 0 -20 -3 -20 -6z"/>
<path d="M5310 5823 c-27 -11 -68 -68 -57 -79 10 -11 97 -14 97 -4 0 5 7 10
15 10 21 0 19 43 -3 63 -19 18 -27 19 -52 10z"/>
<path d="M11280 5806 c0 -8 5 -18 10 -21 6 -3 10 -17 10 -30 0 -26 42 -65 70
-65 10 0 23 -7 30 -15 21 -25 30 -17 30 28 0 50 -21 75 -84 101 -48 20 -66 20
-66 2z"/>
<path d="M3924 5802 c-21 -14 -22 -60 -2 -78 16 -15 21 -16 44 -3 38 20 41 38
8 65 -32 26 -34 27 -50 16z"/>
<path d="M4416 5794 c-4 -9 -4 -19 -1 -22 3 -3 11 0 17 6 9 9 9 15 1 23 -7 7
-12 5 -17 -7z"/>
<path d="M11672 5782 c-10 -23 -9 -29 10 -49 25 -27 41 -29 58 -8 10 12 9 20
-4 40 -27 41 -49 47 -64 17z"/>
<path d="M5090 5771 c-17 -32 -12 -51 13 -51 29 0 53 15 38 24 -6 4 -11 16
-11 27 0 25 -26 25 -40 0z"/>
<path d="M4460 5766 c0 -21 20 -30 33 -17 9 9 8 14 -3 21 -21 14 -30 12 -30
-4z"/>
<path d="M11068 5763 c-16 -8 -28 -17 -28 -21 0 -24 141 -64 154 -44 8 14 -47
69 -74 74 -14 3 -37 -1 -52 -9z"/>
<path d="M11793 5734 c7 -42 5 -39 35 -48 29 -10 30 21 1 58 -29 37 -43 33
-36 -10z"/>
<path d="M12050 5699 c0 -5 5 -7 10 -4 6 3 10 8 10 11 0 2 -4 4 -10 4 -5 0
-10 -5 -10 -11z"/>
<path d="M11582 5686 c1 -10 8 -17 13 -17 15 1 12 24 -3 29 -9 3 -13 -2 -10
-12z"/>
<path d="M12018 5673 c7 -3 16 -2 19 1 4 3 -2 6 -13 5 -11 0 -14 -3 -6 -6z"/>
<path d="M11572 5628 c-15 -15 -15 -19 -2 -53 l10 -26 30 21 c34 24 37 37 13
56 -22 17 -36 17 -51 2z"/>
<path d="M12437 5622 c-24 -26 -21 -33 8 -26 15 4 32 1 40 -6 26 -22 30 -1 5
25 -28 30 -32 30 -53 7z"/>
<path d="M4913 5613 c-14 -3 -23 -12 -23 -23 0 -11 -8 -24 -17 -29 -16 -9 -16
-12 -3 -21 23 -15 32 -12 25 10 -5 16 -2 20 15 20 12 0 30 -5 41 -11 12 -6 27
-8 36 -5 12 5 11 11 -9 35 -23 30 -26 31 -65 24z"/>
<path d="M5540 5571 c0 -20 49 -39 70 -26 20 12 9 33 -21 39 -46 9 -49 8 -49
-13z"/>
<path d="M10482 5555 c-40 -42 -26 -84 28 -82 34 2 35 3 35 46 0 35 -4 45 -21
51 -14 6 -26 2 -42 -15z"/>
<path d="M3920 5534 c0 -9 5 -14 12 -12 18 6 21 28 4 28 -9 0 -16 -7 -16 -16z"/>
<path d="M4165 5539 c-4 -6 -5 -13 -2 -16 7 -7 27 6 27 18 0 12 -17 12 -25 -2z"/>
<path d="M4572 5529 c2 -7 10 -15 17 -17 8 -3 12 1 9 9 -2 7 -10 15 -17 17 -8
3 -12 -1 -9 -9z"/>
<path d="M5172 5515 c-18 -39 -15 -55 14 -65 66 -26 87 0 42 54 -35 43 -41 44
-56 11z"/>
<path d="M4112 5521 c-11 -7 -10 -10 3 -15 19 -7 35 0 35 15 0 11 -20 12 -38
0z"/>
<path d="M4307 5523 c-4 -3 -7 -19 -7 -35 0 -33 19 -37 45 -8 15 16 15 22 5
35 -13 16 -32 20 -43 8z"/>
<path d="M11960 5521 c0 -4 -11 -6 -25 -3 -18 3 -25 0 -25 -12 0 -9 5 -16 10
-16 18 0 10 -22 -10 -27 -28 -8 -37 -43 -14 -60 20 -15 21 -16 23 -63 1 -25 5
-30 25 -30 31 0 43 17 40 58 -3 50 -3 50 -24 57 -23 7 -27 35 -5 35 16 0 48
54 38 64 -9 9 -33 7 -33 -3z"/>
<path d="M12271 5516 c-7 -9 -8 -17 -2 -20 14 -9 41 4 41 20 0 18 -24 18 -39
0z"/>
<path d="M3852 5494 c4 -21 22 -23 26 -1 2 10 -3 17 -13 17 -10 0 -15 -6 -13
-16z"/>
<path d="M11526 5465 c-30 -45 -14 -72 32 -52 27 13 30 52 3 66 -15 9 -22 6
-35 -14z"/>
<path d="M11330 5419 c-26 -51 -20 -81 10 -54 11 10 20 23 20 29 0 6 10 17 22
25 21 13 21 14 3 27 -27 20 -31 18 -55 -27z"/>
<path d="M4930 5432 c-36 -12 -42 -73 -9 -95 15 -11 19 -23 17 -52 -2 -21 2
-40 7 -42 6 -2 11 16 13 43 1 26 9 58 17 71 26 39 -5 89 -45 75z"/>
<path d="M10770 5426 c0 -9 5 -16 10 -16 6 0 10 4 10 9 0 6 -4 13 -10 16 -5 3
-10 -1 -10 -9z"/>
<path d="M10955 5419 c-8 -12 11 -29 32 -29 12 0 28 19 22 24 -13 12 -48 15
-54 5z"/>
<path d="M5668 5399 c-63 -36 -55 -169 11 -169 28 0 52 21 84 72 23 37 21 55
-8 83 -25 26 -58 31 -87 14z"/>
<path d="M10773 5364 c-7 -18 9 -51 23 -46 14 3 11 55 -3 59 -7 3 -16 -3 -20
-13z"/>
<path d="M11701 5348 c-6 -17 -3 -31 11 -50 25 -36 37 -43 43 -24 3 9 8 24 12
34 17 42 6 62 -35 62 -14 0 -26 -8 -31 -22z m54 -28 c3 -5 -3 -10 -15 -10 -12
0 -18 5 -15 10 3 6 10 10 15 10 5 0 12 -4 15 -10z"/>
<path d="M4560 5336 c0 -13 20 -26 41 -26 15 0 10 27 -7 34 -24 9 -34 7 -34
-8z"/>
<path d="M11150 5325 c-11 -13 -10 -19 8 -35 27 -26 42 -25 35 0 -4 14 0 20
11 20 9 0 16 5 16 10 0 6 -6 10 -14 10 -8 0 -21 2 -29 5 -7 3 -20 -1 -27 -10z"/>
<path d="M11560 5321 c0 -23 37 -38 53 -22 7 7 6 15 -3 26 -18 22 -50 19 -50
-4z"/>
<path d="M10998 5323 c-20 -5 -24 -28 -8 -38 13 -8 40 13 40 31 0 14 -3 15
-32 7z"/>
<path d="M11361 5289 c-19 -10 -41 -25 -49 -33 -13 -13 -9 -15 31 -21 25 -4
54 -4 65 -1 24 8 36 45 20 63 -13 16 -25 15 -67 -8z"/>
<path d="M4710 5284 c0 -9 5 -14 12 -12 18 6 21 28 4 28 -9 0 -16 -7 -16 -16z"/>
<path d="M4461 5266 c-9 -10 -9 -16 -1 -21 16 -10 31 7 21 23 -6 10 -10 10
-20 -2z"/>
<path d="M5600 5254 c0 -8 5 -12 10 -9 6 3 10 10 10 16 0 5 -4 9 -10 9 -5 0
-10 -7 -10 -16z"/>
<path d="M10976 5224 c-4 -10 -1 -14 6 -12 15 5 23 28 10 28 -5 0 -13 -7 -16
-16z"/>
<path d="M10850 5222 c0 -13 70 -86 76 -79 12 12 -8 47 -27 47 -12 0 -19 7
-19 20 0 11 -7 20 -15 20 -8 0 -15 -4 -15 -8z"/>
<path d="M11978 5203 c-27 -17 -53 -61 -43 -71 11 -11 80 -11 103 0 27 14 29
49 4 71 -23 21 -30 21 -64 0z"/>
<path d="M11558 5197 c-48 -19 -30 -67 24 -67 20 0 32 7 40 24 22 49 -5 67
-64 43z"/>
<path d="M4117 5194 c-14 -14 -7 -35 11 -32 9 2 17 10 17 17 0 16 -18 25 -28
15z"/>
<path d="M10576 5178 c-5 -19 -31 -24 -41 -8 -8 14 -48 13 -43 -1 2 -6 21 -17
42 -24 20 -7 45 -20 54 -28 22 -19 52 -29 52 -17 0 5 9 12 20 15 26 8 25 37
-2 62 -28 26 -75 26 -82 1z"/>
<path d="M11096 5184 c-8 -22 1 -31 16 -16 9 9 9 15 1 23 -7 7 -12 5 -17 -7z"/>
<path d="M11007 5173 c-12 -12 -7 -33 8 -33 17 0 19 9 7 28 -5 7 -11 9 -15 5z"/>
<path d="M11770 5161 c-18 -35 -12 -51 19 -51 31 0 49 14 31 25 -6 4 -8 15 -5
26 9 26 -31 26 -45 0z"/>
<path d="M11146 5162 c-8 -13 11 -35 23 -28 6 4 11 11 11 16 0 11 -28 21 -34
12z"/>
<path d="M3345 5150 c-8 -14 3 -30 21 -30 8 0 14 9 14 20 0 21 -24 28 -35 10z"/>
<path d="M4895 5133 c4 -16 7 -29 8 -29 1 -1 17 -9 36 -19 38 -19 57 -9 46 24
-5 16 -15 21 -41 21 -24 0 -34 5 -34 15 0 8 -5 15 -11 15 -7 0 -9 -10 -4 -27z"/>
<path d="M5238 5154 c-11 -10 8 -59 23 -59 18 0 24 32 9 50 -13 16 -23 19 -32
9z"/>
<path d="M5612 5148 c-20 -20 -14 -38 12 -38 27 0 40 22 23 39 -14 14 -20 14
-35 -1z"/>
<path d="M4267 5123 c-4 -3 -7 -14 -7 -24 0 -9 -6 -19 -12 -22 -10 -3 -8 -10
5 -23 16 -17 17 -17 17 -1 0 9 7 17 15 17 8 0 15 -6 15 -13 0 -7 5 -18 12 -25
15 -15 58 22 58 51 0 16 -5 18 -30 12 -26 -6 -30 -4 -30 14 0 20 -28 30 -43
14z"/>
<path d="M13147 5124 c-12 -13 -8 -52 7 -57 8 -3 22 1 33 8 14 11 16 18 7 32
-12 19 -36 28 -47 17z"/>
<path d="M12520 5094 c0 -8 5 -12 10 -9 6 3 10 10 10 16 0 5 -4 9 -10 9 -5 0
-10 -7 -10 -16z"/>
<path d="M5100 5084 c0 -17 22 -14 28 4 2 7 -3 12 -12 12 -9 0 -16 -7 -16 -16z"/>
<path d="M11296 5082 c-3 -6 -1 -14 5 -17 15 -10 25 3 12 16 -7 7 -13 7 -17 1z"/>
<path d="M11506 5044 c-7 -28 16 -64 41 -64 7 0 13 -7 13 -15 0 -8 -4 -15 -10
-15 -17 0 -11 -14 11 -28 25 -16 37 -8 20 12 -19 23 5 29 38 10 24 -14 28 -22
26 -55 -2 -38 2 -40 32 -17 9 8 9 14 0 28 -15 25 1 40 17 17 19 -25 39 -22 31
4 -6 16 -4 20 6 14 8 -5 1 6 -15 24 -20 21 -36 29 -48 25 -11 -3 -20 1 -24 11
-4 9 -16 15 -28 14 -39 -3 -45 1 -61 31 -19 37 -41 39 -49 4z"/>
<path d="M11970 4966 c0 -8 5 -18 10 -21 20 -12 -1 -24 -25 -15 -28 11 -82 7
-95 -6 -4 -5 -11 -23 -15 -41 -6 -30 -4 -33 31 -48 20 -8 47 -15 60 -15 23 0
24 3 18 41 -6 36 -5 40 12 38 23 -4 94 28 94 43 0 6 -10 8 -24 4 -18 -4 -25
-1 -29 14 -6 23 -37 27 -37 6z"/>
<path d="M12227 4973 c-16 -15 -5 -33 26 -41 40 -11 47 -7 47 24 0 21 -5 24
-33 24 -19 0 -37 -3 -40 -7z"/>
<path d="M10844 4925 c-4 -10 -13 -13 -24 -10 -20 6 -36 -10 -20 -20 12 -7 70
22 70 35 0 16 -20 12 -26 -5z"/>
<path d="M11255 4920 c-3 -5 -1 -10 4 -10 6 0 11 5 11 10 0 6 -2 10 -4 10 -3
0 -8 -4 -11 -10z"/>
<path d="M4991 4894 c0 -11 3 -14 6 -6 3 7 2 16 -1 19 -3 4 -6 -2 -5 -13z"/>
<path d="M4170 4875 c-26 -31 13 -82 44 -56 22 18 20 48 -3 61 -25 13 -26 13
-41 -5z"/>
<path d="M13916 4817 c-20 -15 -14 -37 9 -37 19 0 28 17 18 35 -8 13 -12 13
-27 2z"/>
<path d="M3577 4794 c-8 -8 1 -24 14 -24 5 0 9 7 9 15 0 15 -12 20 -23 9z"/>
<path d="M5152 4769 c2 -6 8 -10 13 -10 5 0 11 4 13 10 2 6 -4 11 -13 11 -9 0
-15 -5 -13 -11z"/>
<path d="M4730 4759 c0 -5 5 -7 10 -4 6 3 10 8 10 11 0 2 -4 4 -10 4 -5 0 -10
-5 -10 -11z"/>
<path d="M11571 4729 c-12 -20 -11 -24 7 -38 11 -9 25 -27 32 -40 17 -32 29
-15 32 44 3 49 2 50 -27 53 -22 2 -34 -3 -44 -19z"/>
<path d="M11240 4721 c-7 -14 -7 -28 2 -48 9 -23 12 -25 15 -10 8 31 46 16 68
-25 23 -43 38 -44 43 -4 7 57 -5 74 -60 91 -63 18 -55 19 -68 -4z"/>
<path d="M12317 4734 c-14 -14 -6 -24 19 -24 16 0 24 5 22 13 -5 14 -31 21
-41 11z"/>
<path d="M13268 4721 c-15 -13 -33 -18 -46 -14 -25 6 -30 -14 -8 -31 12 -9 13
-19 3 -61 -7 -31 -17 -50 -26 -50 -8 0 -16 -6 -19 -14 -3 -10 1 -12 18 -8 16
4 35 -5 72 -34 32 -25 60 -39 79 -39 25 0 29 -4 29 -29 0 -34 36 -50 60 -25
13 13 13 18 -3 46 -15 27 -16 33 -3 47 37 42 41 145 7 185 -41 47 -120 60
-163 27z"/>
<path d="M12520 4710 c0 -6 7 -10 15 -10 8 0 15 2 15 4 0 2 -7 6 -15 10 -8 3
-15 1 -15 -4z"/>
<path d="M3657 4692 c-21 -23 -22 -56 -1 -76 19 -20 29 -20 59 0 27 18 34 61
13 82 -18 18 -53 15 -71 -6z"/>
<path d="M10642 4688 c6 -18 28 -21 28 -4 0 9 -7 16 -16 16 -9 0 -14 -5 -12
-12z"/>
<path d="M10805 4678 c15 -48 43 -51 31 -3 -4 14 -13 25 -22 25 -11 0 -14 -6
-9 -22z"/>
<path d="M10367 4683 c-11 -10 -8 -41 4 -49 16 -9 43 21 36 40 -7 16 -28 21
-40 9z"/>
<path d="M11390 4675 c0 -8 7 -15 15 -15 8 0 15 7 15 15 0 8 -7 15 -15 15 -8
0 -15 -7 -15 -15z"/>
<path d="M12952 4668 c-24 -24 -9 -54 22 -42 19 7 21 28 3 43 -10 8 -17 7 -25
-1z"/>
<path d="M14051 4654 c0 -11 3 -14 6 -6 3 7 2 16 -1 19 -3 4 -6 -2 -5 -13z"/>
<path d="M11132 4648 c3 -7 13 -15 22 -16 12 -3 17 1 14 10 -3 7 -13 15 -22
16 -12 3 -17 -1 -14 -10z"/>
<path d="M3804 4625 l-25 -26 18 -32 c34 -57 113 -41 113 23 0 58 -63 78 -106
35z"/>
<path d="M11810 4642 c-21 -2 -62 -18 -79 -29 -2 -1 14 -20 36 -41 34 -33 44
-38 75 -34 29 3 38 9 43 29 12 50 -20 83 -75 75z"/>
<path d="M13842 4627 c-24 -26 -27 -48 -12 -78 13 -23 38 -24 68 -3 28 19 29
57 2 84 -25 25 -32 25 -58 -3z"/>
<path d="M4950 4615 c-16 -20 -6 -45 19 -45 23 0 32 18 19 43 -11 21 -22 22
-38 2z"/>
<path d="M14555 4621 c-9 -16 3 -31 26 -31 14 0 19 6 17 17 -4 20 -33 29 -43
14z"/>
<path d="M10367 4613 c-4 -3 -7 -16 -7 -29 0 -29 39 -37 70 -12 30 25 19 48
-23 48 -19 0 -37 -3 -40 -7z"/>
<path d="M10950 4600 c0 -5 5 -10 10 -10 6 0 10 5 10 10 0 6 -4 10 -10 10 -5
0 -10 -4 -10 -10z"/>
<path d="M13064 4596 c-16 -40 20 -72 51 -46 22 18 18 47 -7 54 -33 8 -38 8
-44 -8z"/>
<path d="M5170 4580 c0 -5 5 -10 10 -10 6 0 10 5 10 10 0 6 -4 10 -10 10 -5 0
-10 -4 -10 -10z"/>
<path d="M8634 4550 c-30 -12 -37 -47 -13 -71 15 -15 24 -17 39 -9 25 13 36
56 20 75 -14 17 -17 17 -46 5z"/>
<path d="M11570 4548 c1 -35 15 -60 46 -74 45 -22 65 -14 55 23 -7 25 -11 27
-44 25 -28 -3 -37 0 -37 12 0 8 -4 18 -10 21 -5 3 -10 0 -10 -7z"/>
<path d="M5547 4532 c-18 -20 -14 -52 7 -52 18 0 58 40 53 53 -6 20 -42 19
-60 -1z"/>
<path d="M10910 4535 c0 -9 5 -15 11 -13 6 2 11 8 11 13 0 5 -5 11 -11 13 -6
2 -11 -4 -11 -13z"/>
<path d="M11910 4541 c0 -23 21 -61 34 -61 19 0 26 33 11 53 -13 18 -45 23
-45 8z"/>
<path d="M13608 4529 c-21 -12 -24 -49 -6 -67 21 -21 67 -15 79 12 22 48 -25
84 -73 55z"/>
<path d="M12857 4512 c-10 -10 -17 -35 -17 -56 0 -30 5 -38 26 -46 65 -25 114
0 114 58 0 55 -86 86 -123 44z"/>
<path d="M4656 4511 c-4 -7 -5 -15 -2 -18 9 -9 19 4 14 18 -4 11 -6 11 -12 0z"/>
<path d="M10957 4513 c-13 -13 -7 -53 8 -53 8 0 15 -4 15 -8 0 -5 6 -17 14
-27 12 -17 15 -17 28 -4 30 29 39 56 24 68 -10 8 -16 9 -21 1 -11 -18 -35 -11
-35 10 0 19 -20 27 -33 13z"/>
<path d="M4015 4480 c-8 -14 3 -30 21 -30 8 0 14 9 14 20 0 21 -24 28 -35 10z"/>
<path d="M13947 4474 c-8 -8 1 -24 14 -24 5 0 9 7 9 15 0 15 -12 20 -23 9z"/>
<path d="M11510 4445 c-7 -8 -19 -15 -27 -15 -24 0 -26 -28 -3 -65 16 -26 28
-35 44 -33 18 3 21 11 24 54 3 58 -15 86 -38 59z"/>
<path d="M14101 4406 l-22 -24 35 -22 c45 -27 76 -20 76 19 0 53 -50 69 -89
27z"/>
<path d="M11146 4405 c-3 -8 -12 -15 -20 -15 -7 0 -17 -7 -20 -16 -9 -23 -7
-34 4 -34 6 0 10 7 10 15 0 8 11 22 25 31 25 16 33 34 16 34 -5 0 -11 -7 -15
-15z"/>
<path d="M5035 4340 c3 -5 8 -10 11 -10 2 0 4 5 4 10 0 6 -5 10 -11 10 -5 0
-7 -4 -4 -10z"/>
<path d="M12903 4324 c-9 -23 13 -40 32 -24 12 10 13 16 4 26 -15 18 -28 18
-36 -2z"/>
<path d="M4426 4312 c-8 -24 2 -52 18 -52 7 0 21 6 32 14 15 12 17 18 8 33
-16 26 -51 29 -58 5z"/>
<path d="M4921 4291 c-13 -24 0 -35 30 -26 12 4 19 14 17 23 -5 24 -35 26 -47
3z"/>
<path d="M7230 4290 c0 -5 5 -10 10 -10 6 0 10 5 10 10 0 6 -4 10 -10 10 -5 0
-10 -4 -10 -10z"/>
<path d="M3405 4270 c-8 -14 3 -30 21 -30 8 0 14 9 14 20 0 21 -24 28 -35 10z"/>
<path d="M3871 4262 c-15 -29 5 -52 45 -52 45 0 57 25 23 51 -30 24 -56 24
-68 1z"/>
<path d="M10972 4258 c-9 -9 -6 -21 10 -47 29 -47 40 -54 56 -34 19 26 15 39
-22 66 -24 19 -36 23 -44 15z"/>
<path d="M4844 4249 c-9 -15 12 -33 30 -26 9 4 16 13 16 22 0 17 -35 21 -46 4z"/>
<path d="M11892 4247 c-9 -10 -7 -19 4 -36 15 -21 15 -24 -6 -46 -26 -27 -23
-52 7 -72 19 -13 23 -12 42 8 28 30 28 91 0 130 -23 32 -31 35 -47 16z"/>
<path d="M4383 4213 c-18 -7 -16 -58 2 -73 21 -18 48 -8 63 23 11 22 11 31 2
43 -12 14 -43 17 -67 7z"/>
<path d="M4650 4180 c-35 -35 -19 -70 32 -70 38 0 55 33 33 66 -19 29 -38 31
-65 4z"/>
<path d="M14497 4183 c-2 -5 -7 -21 -11 -37 -8 -34 16 -66 50 -66 41 0 60 70
27 96 -20 15 -59 18 -66 7z"/>
<path d="M14340 4173 c-37 -13 -54 -75 -28 -101 21 -21 75 -15 92 10 25 35 20
65 -14 83 -16 8 -30 15 -32 14 -2 0 -10 -3 -18 -6z"/>
<path d="M14125 4140 c-8 -14 3 -30 21 -30 8 0 14 9 14 20 0 21 -24 28 -35 10z"/>
<path d="M5423 4123 c-17 -12 -23 -25 -23 -55 0 -52 13 -74 51 -87 93 -32 146
99 58 144 -35 19 -58 18 -86 -2z"/>
<path d="M13386 4124 c-22 -22 -20 -41 8 -59 29 -19 50 -12 65 22 9 19 9 29 0
39 -15 19 -54 18 -73 -2z"/>
<path d="M9026 4123 c-12 -12 -6 -33 9 -33 8 0 15 6 15 14 0 17 -14 28 -24 19z"/>
<path d="M5020 4100 c0 -15 7 -20 24 -20 29 0 44 19 25 31 -25 16 -49 10 -49
-11z"/>
<path d="M13670 4105 c-19 -22 -8 -50 21 -53 31 -4 44 19 29 49 -13 23 -33 25
-50 4z"/>
<path d="M4020 4096 c0 -9 7 -16 16 -16 9 0 14 5 12 12 -6 18 -28 21 -28 4z"/>
<path d="M4810 4100 c0 -5 5 -10 11 -10 5 0 7 5 4 10 -3 6 -8 10 -11 10 -2 0
-4 -4 -4 -10z"/>
<path d="M13222 4094 c2 -11 15 -18 36 -20 40 -5 41 0 0 20 -39 20 -40 20 -36
0z"/>
<path d="M14676 4083 c-11 -11 -6 -23 9 -23 8 0 15 4 15 9 0 13 -16 22 -24 14z"/>
<path d="M4840 4070 c0 -5 5 -10 11 -10 5 0 7 5 4 10 -3 6 -8 10 -11 10 -2 0
-4 -4 -4 -10z"/>
<path d="M8700 4055 c0 -9 5 -15 11 -13 6 2 11 8 11 13 0 5 -5 11 -11 13 -6 2
-11 -4 -11 -13z"/>
<path d="M8550 4045 c-8 -10 -9 -23 -3 -42 8 -23 15 -28 44 -28 27 0 35 4 37
22 7 51 -47 85 -78 48z"/>
<path d="M11309 4058 c0 -1 -2 -10 -4 -18 -2 -8 -6 -22 -10 -31 -8 -22 12 -34
30 -19 16 14 15 62 -3 68 -6 2 -12 2 -13 0z"/>
<path d="M4018 3979 c-21 -12 -24 -62 -4 -78 22 -18 75 -2 82 24 10 41 1 60
-31 62 -17 2 -38 -2 -47 -8z"/>
<path d="M10900 3979 c0 -5 5 -7 10 -4 6 3 10 8 10 11 0 2 -4 4 -10 4 -5 0
-10 -5 -10 -11z"/>
<path d="M13051 3977 c-9 -11 -8 -17 4 -27 19 -16 47 -5 43 17 -4 23 -31 28
-47 10z"/>
<path d="M8700 3965 c-10 -11 -10 -19 -2 -27 15 -15 44 -2 40 19 -4 23 -22 27
-38 8z"/>
<path d="M2990 3955 c0 -8 7 -15 15 -15 8 0 15 7 15 15 0 8 -7 15 -15 15 -8 0
-15 -7 -15 -15z"/>
<path d="M4266 3947 c-28 -21 -18 -68 18 -80 25 -8 32 -7 48 13 23 28 23 35
-2 60 -23 23 -39 25 -64 7z"/>
<path d="M8500 3950 c0 -5 5 -10 10 -10 6 0 10 5 10 10 0 6 -4 10 -10 10 -5 0
-10 -4 -10 -10z"/>
<path d="M13283 3934 c-3 -8 -1 -20 4 -25 12 -12 48 14 39 29 -10 17 -36 15
-43 -4z"/>
<path d="M8092 3928 c-32 -32 -3 -92 43 -86 35 4 57 47 39 76 -13 21 -65 27
-82 10z"/>
<path d="M8820 3926 c0 -8 -12 -21 -27 -28 -41 -19 -58 -62 -44 -107 7 -23 7
-39 1 -45 -15 -15 -12 -36 5 -36 8 0 19 9 25 20 6 12 21 20 36 20 63 0 106 56
85 111 -12 32 -81 87 -81 65z"/>
<path d="M3533 3913 c-21 -8 -15 -51 7 -58 25 -8 40 1 40 25 0 21 -28 40 -47
33z"/>
<path d="M10500 3910 c0 -5 5 -10 10 -10 6 0 10 5 10 10 0 6 -4 10 -10 10 -5
0 -10 -4 -10 -10z"/>
<path d="M15035 3880 c-8 -14 3 -30 21 -30 8 0 14 9 14 20 0 21 -24 28 -35 10z"/>
<path d="M4504 3869 c-4 -7 -7 -25 -6 -41 0 -21 -5 -31 -21 -37 -25 -10 -69
-55 -86 -88 -38 -75 41 -183 124 -170 23 4 38 1 46 -9 16 -20 30 -7 23 21 -4
16 1 31 15 47 46 48 39 122 -15 176 -26 26 -34 41 -30 58 3 12 3 30 0 38 -7
19 -40 21 -50 5z"/>
<path d="M12652 3873 c-25 -5 -52 -49 -52 -87 0 -34 43 -66 91 -66 31 0 42 6
59 30 19 27 21 35 10 61 -13 31 -55 70 -74 68 -6 -1 -21 -4 -34 -6z"/>
<path d="M13240 3865 c-10 -12 -10 -18 0 -30 16 -19 40 -3 40 26 0 23 -23 25
-40 4z"/>
<path d="M7776 3794 c-19 -18 -20 -28 -6 -55 20 -37 80 -18 80 26 0 42 -44 59
-74 29z"/>
<path d="M13600 3800 c0 -5 5 -10 10 -10 6 0 10 5 10 10 0 6 -4 10 -10 10 -5
0 -10 -4 -10 -10z"/>
<path d="M3882 3783 c2 -10 10 -18 18 -18 8 0 16 8 18 18 2 12 -3 17 -18 17
-15 0 -20 -5 -18 -17z"/>
<path d="M8519 3761 c-41 -42 -40 -95 4 -150 39 -49 69 -51 77 -6 3 17 13 42
24 58 27 39 24 76 -8 104 -36 31 -62 29 -97 -6z"/>
<path d="M13190 3760 c0 -5 5 -10 11 -10 5 0 7 5 4 10 -3 6 -8 10 -11 10 -2 0
-4 -4 -4 -10z"/>
<path d="M8360 3735 c0 -9 5 -15 11 -13 6 2 11 8 11 13 0 5 -5 11 -11 13 -6 2
-11 -4 -11 -13z"/>
<path d="M14156 3734 c-7 -19 10 -44 29 -44 7 0 18 7 25 15 10 12 10 18 0 30
-16 20 -46 19 -54 -1z"/>
<path d="M4990 3720 c0 -13 7 -20 20 -20 13 0 20 7 20 20 0 13 -7 20 -20 20
-13 0 -20 -7 -20 -20z"/>
<path d="M13374 3689 c-8 -14 11 -33 25 -25 11 7 4 36 -9 36 -5 0 -12 -5 -16
-11z"/>
<path d="M7917 3664 c-16 -16 -6 -35 16 -32 12 2 22 10 22 18 0 16 -26 25 -38
14z"/>
<path d="M4660 3640 c0 -5 5 -10 10 -10 6 0 10 5 10 10 0 6 -4 10 -10 10 -5 0
-10 -4 -10 -10z"/>
<path d="M4902 3634 c-28 -19 -30 -74 -4 -97 28 -26 74 -30 98 -10 36 29 38
57 8 92 -29 35 -66 41 -102 15z"/>
<path d="M8854 3635 c-9 -23 3 -45 25 -45 23 0 35 28 20 46 -15 18 -38 18 -45
-1z"/>
<path d="M4710 3595 c-18 -22 -1 -50 31 -50 20 0 24 5 24 30 0 23 -5 31 -21
33 -11 2 -27 -4 -34 -13z"/>
<path d="M8366 3603 c-11 -11 -6 -23 8 -23 8 0 17 4 20 9 7 10 -19 23 -28 14z"/>
<path d="M8425 3601 c-6 -11 9 -23 19 -14 9 9 7 23 -3 23 -6 0 -12 -4 -16 -9z"/>
<path d="M13371 3590 c-19 -11 -9 -45 14 -45 13 0 21 8 23 21 3 23 -17 37 -37
24z"/>
<path d="M3597 3572 c-24 -27 -21 -45 11 -64 36 -21 52 -13 52 26 0 53 -32 72
-63 38z"/>
<path d="M9140 3575 c0 -9 5 -15 11 -13 6 2 11 8 11 13 0 5 -5 11 -11 13 -6 2
-11 -4 -11 -13z"/>
<path d="M6981 3566 c-12 -14 -5 -26 16 -26 15 0 18 26 4 34 -5 3 -14 0 -20
-8z"/>
<path d="M8992 3548 c-18 -18 -15 -36 7 -48 15 -7 23 -6 35 6 21 20 20 31 -3
44 -24 13 -24 13 -39 -2z"/>
<path d="M13660 3540 c0 -5 5 -10 10 -10 6 0 10 5 10 10 0 6 -4 10 -10 10 -5
0 -10 -4 -10 -10z"/>
<path d="M6217 3534 c-14 -14 -7 -35 11 -32 9 2 17 10 17 17 0 16 -18 25 -28
15z"/>
<path d="M8474 3515 c-4 -9 -2 -21 3 -26 14 -14 45 1 41 20 -4 22 -37 26 -44
6z"/>
<path d="M13180 3480 c0 -5 5 -10 10 -10 6 0 10 5 10 10 0 6 -4 10 -10 10 -5
0 -10 -4 -10 -10z"/>
<path d="M13885 3480 c-3 -5 1 -10 9 -10 9 0 16 5 16 10 0 6 -4 10 -9 10 -6 0
-13 -4 -16 -10z"/>
<path d="M14391 3476 c-12 -14 -5 -26 16 -26 15 0 18 26 4 34 -5 3 -14 0 -20
-8z"/>
<path d="M3548 3469 c-10 -6 -18 -22 -18 -37 0 -50 42 -69 73 -34 22 24 21 38
-3 62 -23 23 -28 24 -52 9z"/>
<path d="M7970 3465 c0 -8 5 -15 10 -15 6 0 10 7 10 15 0 8 -4 15 -10 15 -5 0
-10 -7 -10 -15z"/>
<path d="M4792 3448 c2 -13 10 -23 18 -23 8 0 16 10 18 23 3 17 -2 22 -18 22
-16 0 -21 -5 -18 -22z"/>
<path d="M8650 3445 c-10 -12 -9 -16 5 -21 19 -8 40 9 31 25 -10 15 -21 14
-36 -4z"/>
<path d="M4281 3424 c-33 -42 -26 -138 10 -149 31 -10 58 4 90 47 35 50 36 71
4 103 -33 34 -77 33 -104 -1z"/>
<path d="M13460 3426 c-14 -8 -28 -12 -32 -10 -3 2 -9 0 -13 -6 -3 -5 -1 -10
5 -10 8 0 10 -13 5 -40 -6 -35 -3 -42 21 -65 16 -15 41 -29 56 -32 15 -3 28
-11 28 -19 0 -18 20 -28 32 -16 8 8 8 15 -1 26 -10 12 -9 21 3 45 31 59 17
112 -35 130 -39 13 -38 13 -69 -3z"/>
<path d="M8250 3415 c0 -8 7 -15 15 -15 8 0 15 7 15 15 0 8 -7 15 -15 15 -8 0
-15 -7 -15 -15z"/>
<path d="M11040 3416 c-31 -38 9 -89 54 -68 45 20 30 82 -20 82 -12 0 -27 -7
-34 -14z"/>
<path d="M11790 3390 c-26 -26 -35 -65 -24 -108 17 -67 70 -69 117 -3 33 48
34 75 2 106 -29 30 -68 32 -95 5z"/>
<path d="M3981 3374 c-34 -43 -26 -75 22 -93 68 -26 116 44 67 97 -28 30 -64
28 -89 -4z"/>
<path d="M7742 3388 c-18 -9 -22 -18 -20 -42 2 -25 8 -32 30 -34 34 -4 68 40
51 67 -13 20 -32 23 -61 9z"/>
<path d="M12805 3367 c-21 -30 -19 -57 5 -57 20 0 40 27 40 53 0 25 -28 28
-45 4z"/>
<path d="M13240 3380 c0 -5 7 -10 15 -10 8 0 15 5 15 10 0 6 -7 10 -15 10 -8
0 -15 -4 -15 -10z"/>
<path d="M6520 3361 c-28 -54 5 -121 60 -121 53 0 83 86 42 123 -26 24 -88 22
-102 -2z"/>
<path d="M13842 3358 c-17 -17 -15 -47 3 -54 21 -9 47 15 43 40 -4 24 -28 32
-46 14z"/>
<path d="M14326 3361 c-4 -7 -5 -15 -2 -18 9 -9 19 4 14 18 -4 11 -6 11 -12 0z"/>
<path d="M13303 3343 c-13 -2 -23 -11 -23 -19 0 -11 10 -14 38 -12 25 2 37 8
37 18 0 16 -17 20 -52 13z"/>
<path d="M8987 3324 c-8 -9 11 -44 24 -44 16 0 23 31 8 41 -17 10 -24 11 -32
3z"/>
<path d="M7700 3294 c0 -17 22 -14 28 4 2 7 -3 12 -12 12 -9 0 -16 -7 -16 -16z"/>
<path d="M13182 3288 c-19 -19 -14 -56 9 -69 31 -16 69 3 69 35 0 38 -52 60
-78 34z"/>
<path d="M13678 3288 c-8 -22 3 -38 27 -38 24 0 35 16 28 38 -3 6 -15 12 -28
12 -12 0 -25 -6 -27 -12z"/>
<path d="M10628 3279 c-22 -12 -23 -52 -3 -69 21 -17 52 -3 63 29 16 44 -17
66 -60 40z"/>
<path d="M7041 3251 c-19 -12 -4 -51 20 -51 25 0 35 25 19 45 -14 17 -20 18
-39 6z"/>
<path d="M7575 3226 l-29 -24 28 -42 28 -43 24 29 c64 78 25 141 -51 80z"/>
<path d="M2743 3225 c-7 -20 2 -29 21 -22 9 4 13 13 10 22 -8 19 -23 19 -31 0z"/>
<path d="M14017 3224 c-17 -18 -6 -35 21 -32 16 2 27 9 27 18 0 16 -36 26 -48
14z"/>
<path d="M8855 3200 c4 -6 11 -8 16 -5 14 9 11 15 -7 15 -8 0 -12 -5 -9 -10z"/>
<path d="M1975 3190 c-8 -14 3 -30 21 -30 8 0 14 9 14 20 0 21 -24 28 -35 10z"/>
<path d="M4242 3188 c-20 -20 -14 -38 14 -38 20 0 25 4 22 22 -4 26 -19 33
-36 16z"/>
<path d="M10247 3194 c-14 -15 -6 -34 14 -34 14 0 19 5 17 17 -3 18 -20 27
-31 17z"/>
<path d="M4403 3183 c-19 -7 -16 -50 4 -57 24 -10 51 20 37 41 -12 19 -23 24
-41 16z"/>
<path d="M6440 3166 c0 -9 7 -16 16 -16 9 0 14 5 12 12 -6 18 -28 21 -28 4z"/>
<path d="M8021 3171 c-15 -10 -8 -41 9 -41 15 0 25 29 14 40 -5 5 -15 5 -23 1z"/>
<path d="M13216 3161 c-4 -5 -2 -12 3 -15 5 -4 12 -2 15 3 4 5 2 12 -3 15 -5
4 -12 2 -15 -3z"/>
<path d="M3016 3144 c-9 -8 -16 -24 -16 -34 0 -23 42 -53 67 -48 25 4 29 54 7
79 -21 23 -37 24 -58 3z"/>
<path d="M9280 3145 c0 -8 5 -15 10 -15 6 0 10 7 10 15 0 8 -4 15 -10 15 -5 0
-10 -7 -10 -15z"/>
<path d="M9480 3145 c-10 -12 -9 -16 5 -21 19 -8 40 9 31 25 -10 15 -21 14
-36 -4z"/>
<path d="M11736 3135 c-8 -22 28 -39 44 -20 6 8 9 19 5 25 -9 15 -42 12 -49
-5z"/>
<path d="M3730 3124 c0 -9 5 -14 12 -12 18 6 21 28 4 28 -9 0 -16 -7 -16 -16z"/>
<path d="M6345 3130 c4 -6 11 -8 16 -5 14 9 11 15 -7 15 -8 0 -12 -5 -9 -10z"/>
<path d="M8910 3105 c-24 -29 8 -75 44 -62 30 12 14 77 -20 77 -6 0 -17 -7
-24 -15z"/>
<path d="M6527 3068 c-29 -37 -24 -65 21 -110 15 -14 40 -40 55 -57 32 -35 66
-40 114 -16 73 36 87 95 36 146 -21 22 -50 35 -107 49 -43 11 -82 20 -87 20
-4 0 -19 -14 -32 -32z"/>
<path d="M11232 3088 c6 -18 28 -21 28 -4 0 9 -7 16 -16 16 -9 0 -14 -5 -12
-12z"/>
<path d="M13486 3084 c-7 -18 0 -34 15 -34 5 0 9 11 9 25 0 28 -15 34 -24 9z"/>
<path d="M14279 3054 c-16 -20 -1 -48 30 -52 17 -3 21 2 21 26 0 18 -6 32 -16
36 -21 8 -20 8 -35 -10z"/>
<path d="M5428 3049 c-38 -22 -11 -89 36 -89 30 0 46 18 46 52 0 40 -43 60
-82 37z"/>
<path d="M14162 3048 c-23 -23 -7 -68 25 -68 7 0 20 12 30 26 16 25 16 27 -2
40 -23 17 -37 18 -53 2z"/>
<path d="M8640 3030 c0 -13 5 -20 13 -17 6 2 12 10 12 17 0 7 -6 15 -12 18 -8
2 -13 -5 -13 -18z"/>
<path d="M3534 3025 c-7 -18 3 -35 22 -35 20 0 30 30 13 41 -20 12 -29 11 -35
-6z"/>
<path d="M9235 3030 c-3 -5 -1 -10 4 -10 6 0 11 5 11 10 0 6 -2 10 -4 10 -3 0
-8 -4 -11 -10z"/>
<path d="M13540 3025 c-16 -19 -5 -47 17 -43 11 2 18 12 18 27 0 29 -17 37
-35 16z"/>
<path d="M14030 3030 c0 -5 5 -10 10 -10 6 0 10 5 10 10 0 6 -4 10 -10 10 -5
0 -10 -4 -10 -10z"/>
<path d="M8984 3006 c-10 -26 4 -48 28 -44 17 2 23 10 23 28 0 18 -6 26 -23
28 -13 2 -25 -3 -28 -12z"/>
<path d="M13727 3014 c-14 -15 -6 -34 14 -34 14 0 19 5 17 17 -3 18 -20 27
-31 17z"/>
<path d="M7814 2985 c-9 -22 22 -53 37 -38 15 15 7 47 -14 51 -9 2 -20 -4 -23
-13z"/>
<path d="M3037 2983 c-4 -3 -7 -17 -7 -30 0 -26 30 -32 49 -9 22 27 -18 64
-42 39z"/>
<path d="M8016 2955 c-9 -25 5 -46 28 -43 15 2 22 11 24 31 3 23 0 27 -21 27
-14 0 -27 -7 -31 -15z"/>
<path d="M8419 2927 c-33 -17 -35 -70 -2 -75 24 -4 63 29 63 53 0 24 -33 35
-61 22z"/>
<path d="M13316 2933 c-11 -11 -6 -23 9 -23 8 0 15 4 15 9 0 13 -16 22 -24 14z"/>
<path d="M13768 2929 c-28 -16 -23 -67 7 -81 21 -9 28 -8 45 7 25 23 25 40 0
65 -23 23 -28 24 -52 9z"/>
<path d="M2802 2907 c-13 -15 8 -47 31 -47 20 0 30 29 16 46 -14 17 -33 18
-47 1z"/>
<path d="M13470 2894 c0 -8 5 -12 10 -9 6 3 10 10 10 16 0 5 -4 9 -10 9 -5 0
-10 -7 -10 -16z"/>
<path d="M7520 2880 c0 -5 5 -10 10 -10 6 0 10 5 10 10 0 6 -4 10 -10 10 -5 0
-10 -4 -10 -10z"/>
<path d="M10305 2870 c-3 -6 -3 -19 0 -30 7 -23 43 -27 51 -5 12 29 -35 61
-51 35z"/>
<path d="M6880 2851 c0 -15 6 -21 21 -21 14 0 19 5 17 17 -5 26 -38 29 -38 4z"/>
<path d="M14640 2860 c0 -5 7 -10 15 -10 8 0 15 5 15 10 0 6 -7 10 -15 10 -8
0 -15 -4 -15 -10z"/>
<path d="M13027 2842 c-21 -23 -21 -41 -1 -70 22 -31 63 -26 83 10 15 25 14
29 -8 52 -29 31 -52 33 -74 8z"/>
<path d="M13440 2845 c0 -8 5 -15 10 -15 6 0 10 7 10 15 0 8 -4 15 -10 15 -5
0 -10 -7 -10 -15z"/>
<path d="M2202 2828 c6 -18 28 -21 28 -4 0 9 -7 16 -16 16 -9 0 -14 -5 -12
-12z"/>
<path d="M3785 2820 c-4 -6 -3 -16 3 -22 6 -6 12 -6 17 2 4 6 3 16 -3 22 -6 6
-12 6 -17 -2z"/>
<path d="M8580 2810 c0 -5 5 -10 10 -10 6 0 10 5 10 10 0 6 -4 10 -10 10 -5 0
-10 -4 -10 -10z"/>
<path d="M3360 2800 c0 -5 5 -10 10 -10 6 0 10 5 10 10 0 6 -4 10 -10 10 -5 0
-10 -4 -10 -10z"/>
<path d="M9707 2794 c-8 -8 1 -24 14 -24 5 0 9 7 9 15 0 15 -12 20 -23 9z"/>
<path d="M11282 2768 c6 -18 28 -21 28 -4 0 9 -7 16 -16 16 -9 0 -14 -5 -12
-12z"/>
<path d="M7292 2762 c-19 -12 -2 -116 19 -120 21 -4 51 26 42 41 -4 6 -9 27
-13 47 -5 35 -24 47 -48 32z"/>
<path d="M10860 2760 c0 -5 5 -10 10 -10 6 0 10 5 10 10 0 6 -4 10 -10 10 -5
0 -10 -4 -10 -10z"/>
<path d="M14053 2758 c2 -7 10 -13 17 -13 7 0 15 6 18 13 2 7 -5 12 -18 12
-13 0 -20 -5 -17 -12z"/>
<path d="M2284 2725 c-22 -34 -11 -73 22 -81 46 -12 86 60 52 94 -20 20 -56
14 -74 -13z"/>
<path d="M7900 2720 c0 -5 5 -10 10 -10 6 0 10 5 10 10 0 6 -4 10 -10 10 -5 0
-10 -4 -10 -10z"/>
<path d="M14535 2711 c-3 -5 -1 -12 5 -16 5 -3 10 1 10 9 0 18 -6 21 -15 7z"/>
<path d="M9787 2685 c-42 -59 20 -112 71 -61 26 25 26 28 12 54 -21 36 -59 40
-83 7z"/>
<path d="M2434 2667 c-26 -23 -26 -24 -10 -55 20 -39 57 -50 91 -28 33 21 34
69 3 90 -31 22 -52 20 -84 -7z"/>
<path d="M7781 2666 c-13 -14 -28 -23 -33 -20 -5 3 -21 1 -36 -4 -15 -6 -39
-13 -53 -16 -17 -4 -31 -17 -39 -36 -11 -27 -15 -29 -49 -24 -58 9 -92 -34
-55 -70 18 -19 28 -20 57 -5 18 10 24 8 42 -15 14 -18 30 -26 51 -26 16 0 35
-5 42 -12 9 -9 12 -7 12 12 0 14 8 39 17 55 9 17 19 50 22 74 5 39 10 45 41
55 24 8 35 17 35 31 0 29 -27 29 -54 1z"/>
<path d="M8370 2675 c0 -8 7 -15 15 -15 8 0 15 7 15 15 0 8 -7 15 -15 15 -8 0
-15 -7 -15 -15z"/>
<path d="M1750 2670 c0 -5 5 -10 10 -10 6 0 10 5 10 10 0 6 -4 10 -10 10 -5 0
-10 -4 -10 -10z"/>
<path d="M13063 2662 c-23 -18 -40 -94 -29 -130 7 -21 39 -36 93 -46 43 -7 54
14 46 85 -5 42 -13 59 -37 81 -35 33 -43 34 -73 10z"/>
<path d="M3580 2655 c-16 -20 -6 -45 19 -45 23 0 32 18 19 43 -11 21 -22 22
-38 2z"/>
<path d="M6268 2645 c-14 -32 -5 -41 27 -27 22 10 24 14 13 32 -17 26 -26 25
-40 -5z"/>
<path d="M13516 2661 c-7 -11 18 -33 27 -24 4 3 7 12 7 20 0 15 -26 18 -34 4z"/>
<path d="M1420 2650 c0 -5 5 -10 10 -10 6 0 10 5 10 10 0 6 -4 10 -10 10 -5 0
-10 -4 -10 -10z"/>
<path d="M6738 2634 c-11 -22 -10 -28 7 -40 24 -18 46 -18 71 1 18 15 18 16
-11 40 -38 32 -52 31 -67 -1z"/>
<path d="M6892 2638 c-17 -17 -15 -67 3 -74 8 -4 26 -3 40 0 29 7 44 49 25 71
-15 18 -51 20 -68 3z"/>
<path d="M9942 2627 c-29 -31 -28 -47 7 -86 30 -33 30 -33 55 -15 14 11 31 32
37 48 12 27 10 31 -15 52 -34 30 -57 30 -84 1z"/>
<path d="M3800 2620 c0 -5 5 -10 10 -10 6 0 10 5 10 10 0 6 -4 10 -10 10 -5 0
-10 -4 -10 -10z"/>
<path d="M11077 2606 c-8 -20 19 -47 39 -39 8 3 14 15 12 27 -4 25 -43 34 -51
12z"/>
<path d="M9050 2600 c0 -5 5 -10 10 -10 6 0 10 5 10 10 0 6 -4 10 -10 10 -5 0
-10 -4 -10 -10z"/>
<path d="M14210 2590 c0 -5 5 -10 11 -10 5 0 7 5 4 10 -3 6 -8 10 -11 10 -2 0
-4 -4 -4 -10z"/>
<path d="M4175 2570 c-17 -18 -17 -22 -4 -36 18 -18 40 -11 57 17 25 39 -20
55 -53 19z"/>
<path d="M11302 2579 c2 -6 8 -10 13 -10 5 0 11 4 13 10 2 6 -4 11 -13 11 -9
0 -15 -5 -13 -11z"/>
<path d="M1961 2546 c-7 -8 -8 -17 -3 -20 6 -3 15 1 21 8 7 8 8 17 3 20 -6 3
-15 -1 -21 -8z"/>
<path d="M3286 2551 c-4 -7 -5 -15 -2 -18 9 -9 19 4 14 18 -4 11 -6 11 -12 0z"/>
<path d="M9788 2539 c-11 -6 -18 -22 -18 -39 0 -34 25 -51 56 -40 30 11 37 39
19 66 -17 26 -30 29 -57 13z"/>
<path d="M11679 2532 c-26 -22 -21 -52 9 -52 25 0 56 35 49 55 -8 20 -30 19
-58 -3z"/>
<path d="M2642 2513 c5 -26 38 -29 38 -4 0 15 -6 21 -21 21 -14 0 -19 -5 -17
-17z"/>
<path d="M8288 2499 c-59 -44 -16 -149 61 -149 10 0 30 11 45 25 43 40 32 101
-24 130 -38 19 -49 19 -82 -6z"/>
<path d="M10526 2505 c-29 -30 -34 -49 -26 -95 5 -25 9 -48 10 -52 0 -5 11 -8
23 -8 32 0 37 -8 26 -38 -12 -32 9 -57 40 -47 25 8 29 50 6 59 -20 7 -19 25 3
50 10 12 25 36 32 54 12 30 11 36 -7 60 -24 33 -82 42 -107 17z"/>
<path d="M10785 2500 c3 -5 10 -10 16 -10 5 0 9 5 9 10 0 6 -7 10 -16 10 -8 0
-12 -4 -9 -10z"/>
<path d="M7890 2481 c0 -27 15 -34 40 -21 17 9 19 14 9 26 -17 21 -49 18 -49
-5z"/>
<path d="M13462 2489 c2 -6 8 -10 13 -10 5 0 11 4 13 10 2 6 -4 11 -13 11 -9
0 -15 -5 -13 -11z"/>
<path d="M10145 2480 c-4 -7 -3 -16 3 -22 14 -14 45 -2 40 15 -6 16 -34 21
-43 7z"/>
<path d="M6882 2468 c6 -18 28 -21 28 -4 0 9 -7 16 -16 16 -9 0 -14 -5 -12
-12z"/>
<path d="M1780 2450 c0 -5 5 -10 10 -10 6 0 10 5 10 10 0 6 -4 10 -10 10 -5 0
-10 -4 -10 -10z"/>
<path d="M2794 2425 c-4 -9 -2 -21 3 -26 14 -14 45 1 41 20 -4 22 -37 26 -44
6z"/>
<path d="M6097 2414 c-14 -14 -7 -35 11 -32 9 2 17 10 17 17 0 16 -18 25 -28
15z"/>
<path d="M3660 2380 c0 -5 5 -10 10 -10 6 0 10 5 10 10 0 6 -4 10 -10 10 -5 0
-10 -4 -10 -10z"/>
<path d="M5325 2370 c-8 -14 3 -30 21 -30 8 0 14 9 14 20 0 21 -24 28 -35 10z"/>
<path d="M1420 2355 c-16 -19 -6 -45 18 -45 29 0 48 26 32 45 -16 19 -34 19
-50 0z"/>
<path d="M3056 2352 c-8 -24 2 -52 18 -52 7 0 21 6 32 14 15 12 17 18 8 33
-16 26 -51 29 -58 5z"/>
<path d="M6888 2359 c-25 -14 -24 -71 1 -93 18 -17 21 -17 45 -1 30 20 44 60
29 84 -12 19 -51 25 -75 10z"/>
<path d="M7581 2351 c-12 -22 -5 -31 25 -31 22 0 39 24 28 41 -9 16 -43 10
-53 -10z"/>
<path d="M3550 2329 c-15 -26 -8 -33 25 -25 16 4 25 13 25 26 0 27 -36 26 -50
-1z"/>
<path d="M11170 2340 c0 -5 5 -10 10 -10 6 0 10 5 10 10 0 6 -4 10 -10 10 -5
0 -10 -4 -10 -10z"/>
<path d="M2207 2333 c-4 -3 -7 -15 -7 -25 0 -21 36 -25 43 -5 9 27 -17 50 -36
30z"/>
<path d="M7140 2330 c-8 -5 -25 -10 -37 -10 -14 0 -23 -6 -23 -15 0 -8 5 -15
11 -15 7 0 22 -11 35 -25 28 -30 55 -32 78 -6 20 22 10 53 -24 71 -23 12 -21
12 -40 0z"/>
<path d="M13600 2320 c0 -5 5 -10 10 -10 6 0 10 5 10 10 0 6 -4 10 -10 10 -5
0 -10 -4 -10 -10z"/>
<path d="M2035 2310 c-8 -14 3 -30 21 -30 8 0 14 9 14 20 0 21 -24 28 -35 10z"/>
<path d="M2512 2308 c-32 -32 3 -70 55 -60 30 6 30 36 1 56 -27 19 -40 20 -56
4z"/>
<path d="M11063 2308 c-23 -30 -23 -48 1 -48 28 0 51 24 42 45 -7 18 -30 20
-43 3z"/>
<path d="M8980 2290 c0 -22 1 -23 24 -14 18 7 10 34 -10 34 -8 0 -14 -9 -14
-20z"/>
<path d="M1474 2285 c-15 -11 -17 -17 -8 -32 16 -26 58 -24 62 4 4 30 -29 47
-54 28z"/>
<path d="M1712 2284 c4 -21 22 -23 26 -1 2 10 -3 17 -13 17 -10 0 -15 -6 -13
-16z"/>
<path d="M3474 2289 c-9 -15 12 -33 30 -26 9 4 16 13 16 22 0 17 -35 21 -46 4z"/>
<path d="M9535 2270 c-4 -7 -3 -16 3 -22 14 -14 45 -2 40 15 -6 16 -34 21 -43
7z"/>
<path d="M10012 2268 c-7 -7 -12 -18 -12 -25 0 -8 -7 -16 -15 -19 -16 -6 -21
-44 -6 -44 5 0 14 7 21 15 7 9 21 13 31 10 53 -17 79 29 34 59 -29 19 -37 20
-53 4z"/>
<path d="M8214 2259 c-8 -14 11 -33 25 -25 16 10 13 36 -3 36 -8 0 -18 -5 -22
-11z"/>
<path d="M10481 2256 c-16 -19 -6 -36 20 -36 15 0 20 6 17 22 -4 27 -21 33
-37 14z"/>
<path d="M7369 2239 c-6 -12 -9 -30 -6 -40 4 -14 -3 -24 -21 -33 -34 -18 -75
-63 -88 -96 -16 -42 -5 -79 37 -121 35 -35 46 -40 79 -38 21 2 45 -3 54 -10
20 -17 42 -5 26 14 -13 15 -2 42 24 64 42 35 24 127 -35 180 -25 23 -29 32
-21 48 12 22 -2 53 -23 53 -8 0 -19 -9 -26 -21z"/>
<path d="M10977 2246 c-7 -18 11 -36 29 -29 8 3 14 14 14 24 0 22 -35 26 -43
5z"/>
<path d="M1200 2236 c0 -9 5 -16 10 -16 6 0 10 4 10 9 0 6 -4 13 -10 16 -5 3
-10 -1 -10 -9z"/>
<path d="M4433 2224 c-38 -18 -54 -33 -62 -56 -23 -64 -10 -116 42 -171 23
-25 38 -31 80 -34 59 -4 68 1 117 69 62 88 35 182 -59 208 -50 14 -59 13 -118
-16z"/>
<path d="M3280 2216 c-6 -8 -10 -25 -8 -38 4 -32 62 -39 78 -9 23 44 -38 85
-70 47z"/>
<path d="M13792 2221 c-21 -13 -10 -46 16 -49 27 -4 40 22 22 43 -14 17 -20
18 -38 6z"/>
<path d="M10155 2200 c3 -5 8 -10 11 -10 2 0 4 5 4 10 0 6 -5 10 -11 10 -5 0
-7 -4 -4 -10z"/>
<path d="M11398 2182 c-7 -25 3 -92 13 -92 5 0 23 13 40 28 31 28 33 57 4 46
-8 -4 -17 1 -21 9 -8 23 -31 28 -36 9z"/>
<path d="M10788 2179 c-22 -12 -23 -52 -3 -69 23 -19 75 5 75 34 0 41 -35 57
-72 35z"/>
<path d="M4051 2161 c-17 -13 -24 -28 -23 -50 1 -52 12 -72 48 -87 30 -13 38
-12 65 1 38 20 52 54 38 95 -11 31 -53 60 -86 60 -10 0 -29 -9 -42 -19z"/>
<path d="M6747 2174 c-16 -16 -6 -35 16 -32 12 2 22 10 22 18 0 16 -26 25 -38
14z"/>
<path d="M1540 2154 c0 -8 5 -12 10 -9 6 4 8 11 5 16 -9 14 -15 11 -15 -7z"/>
<path d="M3650 2140 c0 -16 7 -20 31 -20 24 0 30 3 25 16 -3 9 -6 18 -6 20 0
2 -11 4 -25 4 -18 0 -25 -5 -25 -20z"/>
<path d="M2650 2136 c0 -9 7 -16 16 -16 17 0 14 22 -4 28 -7 2 -12 -3 -12 -12z"/>
<path d="M3435 2140 c-3 -5 1 -10 10 -10 9 0 13 5 10 10 -3 6 -8 10 -10 10 -2
0 -7 -4 -10 -10z"/>
<path d="M11556 2118 c-17 -16 -26 -35 -28 -63 -3 -35 1 -42 31 -62 45 -30 67
-29 102 6 44 45 36 97 -21 126 -39 20 -54 19 -84 -7z"/>
<path d="M13312 2129 c2 -6 8 -10 13 -10 5 0 11 4 13 10 2 6 -4 11 -13 11 -9
0 -15 -5 -13 -11z"/>
<path d="M10536 2115 c-9 -9 -16 -23 -16 -30 0 -18 28 -45 45 -45 19 0 48 44
43 67 -4 24 -51 29 -72 8z"/>
<path d="M2538 2113 c-19 -5 -43 -57 -33 -72 8 -14 41 -14 66 -1 40 22 13 83
-33 73z"/>
<path d="M3470 2110 c0 -5 5 -10 11 -10 5 0 7 5 4 10 -3 6 -8 10 -11 10 -2 0
-4 -4 -4 -10z"/>
<path d="M7862 2098 c2 -12 10 -23 18 -23 22 0 19 39 -3 43 -15 3 -18 -1 -15
-20z"/>
<path d="M11155 2110 c-11 -17 18 -42 39 -34 9 4 16 14 14 23 -4 19 -43 27
-53 11z"/>
<path d="M1404 2099 c-10 -16 23 -46 36 -33 6 6 8 18 4 27 -7 19 -29 22 -40 6z"/>
<path d="M10155 2100 c-4 -6 -3 -16 3 -22 6 -6 12 -6 17 2 4 6 3 16 -3 22 -6
6 -12 6 -17 -2z"/>
<path d="M10945 2100 c-3 -5 -1 -10 4 -10 6 0 11 5 11 10 0 6 -2 10 -4 10 -3
0 -8 -4 -11 -10z"/>
<path d="M6154 2085 c-9 -23 3 -45 25 -45 23 0 32 18 19 43 -11 21 -37 22 -44
2z"/>
<path d="M14137 2093 c-15 -14 -7 -43 12 -43 26 0 36 17 21 35 -14 16 -23 19
-33 8z"/>
<path d="M10970 2070 c0 -5 5 -10 10 -10 6 0 10 5 10 10 0 6 -4 10 -10 10 -5
0 -10 -4 -10 -10z"/>
<path d="M13313 2043 c-8 -3 -13 -23 -13 -47 0 -35 4 -45 25 -56 22 -12 27
-11 45 5 48 43 2 122 -57 98z"/>
<path d="M2648 2019 c-21 -12 -23 -48 -5 -73 9 -13 20 -16 39 -11 36 9 50 28
46 62 -2 23 -8 28 -33 30 -16 2 -38 -2 -47 -8z"/>
<path d="M7520 2020 c0 -5 7 -10 16 -10 8 0 12 5 9 10 -3 6 -10 10 -16 10 -5
0 -9 -4 -9 -10z"/>
<path d="M7766 2009 c-34 -27 -33 -54 3 -90 34 -34 69 -37 99 -9 29 27 28 61
-3 94 -29 31 -63 33 -99 5z"/>
<path d="M2447 2014 c-8 -8 1 -24 14 -24 5 0 9 7 9 15 0 15 -12 20 -23 9z"/>
<path d="M5557 2014 c-8 -8 1 -24 14 -24 5 0 9 7 9 15 0 15 -12 20 -23 9z"/>
<path d="M2898 1989 c-11 -6 -18 -22 -18 -40 0 -22 6 -32 26 -39 36 -14 42
-13 60 15 15 23 15 27 0 50 -17 26 -40 31 -68 14z"/>
<path d="M7132 1988 c6 -18 28 -21 28 -4 0 9 -7 16 -16 16 -9 0 -14 -5 -12
-12z"/>
<path d="M6710 1980 c0 -5 5 -10 10 -10 6 0 10 5 10 10 0 6 -4 10 -10 10 -5 0
-10 -4 -10 -10z"/>
<path d="M7582 1978 c-18 -18 -14 -46 7 -58 34 -18 67 30 39 58 -7 7 -17 12
-23 12 -6 0 -16 -5 -23 -12z"/>
<path d="M9036 1981 c-10 -15 17 -52 34 -49 25 5 19 52 -7 56 -11 2 -24 -1
-27 -7z"/>
<path d="M10145 1970 c-15 -16 -17 -26 -9 -48 16 -47 87 -38 100 13 13 51 -54
76 -91 35z"/>
<path d="M1677 1974 c-14 -14 -7 -35 11 -32 9 2 17 10 17 17 0 16 -18 25 -28
15z"/>
<path d="M1992 1948 c6 -18 28 -21 28 -4 0 9 -7 16 -16 16 -9 0 -14 -5 -12
-12z"/>
<path d="M10405 1946 c-11 -8 -20 -27 -21 -44 -1 -27 2 -31 34 -37 28 -5 39
-3 49 11 19 26 16 51 -9 68 -27 19 -29 20 -53 2z"/>
<path d="M1380 1925 c-10 -12 -10 -18 0 -30 7 -8 18 -15 25 -15 7 0 18 7 25
15 10 12 10 18 0 30 -7 8 -18 15 -25 15 -7 0 -18 -7 -25 -15z"/>
<path d="M5636 1905 c-9 -13 -16 -31 -16 -38 0 -18 32 -47 53 -47 22 0 57 48
50 68 -17 49 -61 57 -87 17z"/>
<path d="M10875 1898 c10 -45 23 -68 39 -68 7 0 23 -11 36 -25 30 -32 41 -24
36 27 -4 45 -33 78 -67 78 -10 0 -19 5 -19 10 0 6 -7 10 -16 10 -12 0 -14 -7
-9 -32z"/>
<path d="M3134 1909 c-4 -7 -7 -25 -6 -40 0 -16 -3 -29 -8 -29 -16 0 -80 -62
-96 -91 -7 -15 -14 -41 -14 -56 0 -62 77 -129 137 -120 23 4 35 1 42 -10 12
-22 32 -6 26 20 -4 14 3 34 20 56 42 58 29 130 -33 183 -24 20 -27 28 -19 45
5 12 7 29 4 37 -7 19 -43 21 -53 5z"/>
<path d="M8442 1899 c2 -6 8 -10 13 -10 5 0 11 4 13 10 2 6 -4 11 -13 11 -9 0
-15 -5 -13 -11z"/>
<path d="M10014 1889 c-8 -14 18 -31 30 -19 9 9 0 30 -14 30 -5 0 -12 -5 -16
-11z"/>
<path d="M1280 1880 c0 -5 5 -10 10 -10 6 0 10 5 10 10 0 6 -4 10 -10 10 -5 0
-10 -4 -10 -10z"/>
<path d="M11346 1882 c-8 -13 23 -72 38 -72 25 0 26 15 3 48 -22 32 -32 38
-41 24z"/>
<path d="M5410 1861 c-13 -25 -13 -58 0 -66 6 -3 10 -21 10 -38 0 -44 23 -74
60 -79 39 -6 73 19 101 74 26 52 15 76 -47 106 -57 28 -110 29 -124 3z"/>
<path d="M9150 1864 c0 -8 5 -12 10 -9 6 3 10 10 10 16 0 5 -4 9 -10 9 -5 0
-10 -7 -10 -16z"/>
<path d="M9595 1870 c3 -5 8 -10 11 -10 2 0 4 5 4 10 0 6 -5 10 -11 10 -5 0
-7 -4 -4 -10z"/>
<path d="M10635 1857 c-4 -13 -5 -32 -3 -40 2 -10 -10 -24 -32 -35 -37 -20
-77 -70 -86 -109 -4 -13 3 -40 15 -66 26 -53 26 -57 1 -57 -27 0 -26 -27 2
-36 14 -4 25 -1 32 8 13 17 112 16 129 -1 19 -19 29 -12 23 15 -5 19 0 33 19
55 42 51 34 121 -24 182 -18 20 -26 39 -26 65 0 31 -4 38 -22 40 -17 2 -24 -3
-28 -21z"/>
<path d="M13402 1869 c-19 -7 -23 -15 -20 -40 4 -44 30 -59 57 -35 42 38 14
94 -37 75z"/>
<path d="M5792 1847 c-26 -28 -27 -45 -6 -75 19 -27 64 -29 87 -4 24 26 21 68
-5 86 -31 22 -51 20 -76 -7z"/>
<path d="M1483 1834 c-3 -8 -1 -20 5 -26 16 -16 42 -2 42 22 0 24 -38 28 -47
4z"/>
<path d="M1733 1839 c-15 -15 -5 -39 17 -39 22 0 32 24 17 39 -6 6 -14 11 -17
11 -3 0 -11 -5 -17 -11z"/>
<path d="M2521 1841 c-15 -10 -8 -41 9 -41 15 0 25 29 14 40 -5 5 -15 5 -23 1z"/>
<path d="M6938 1839 c-23 -13 -23 -36 1 -48 27 -15 47 10 31 38 -12 24 -10 23
-32 10z"/>
<path d="M7656 1841 c-10 -16 5 -42 23 -39 21 4 21 42 -1 46 -9 2 -19 -1 -22
-7z"/>
<path d="M1850 1815 c0 -6 16 -11 35 -12 23 -1 35 4 35 12 0 8 -12 13 -35 12
-19 -1 -35 -6 -35 -12z"/>
<path d="M8530 1808 c-25 -27 -26 -60 -2 -81 25 -22 34 -21 60 6 27 28 28 58
4 80 -25 22 -37 21 -62 -5z"/>
<path d="M11610 1819 c0 -5 5 -7 10 -4 6 3 10 8 10 11 0 2 -4 4 -10 4 -5 0
-10 -5 -10 -11z"/>
<path d="M11140 1805 c0 -8 5 -15 10 -15 6 0 10 7 10 15 0 8 -4 15 -10 15 -5
0 -10 -7 -10 -15z"/>
<path d="M7150 1800 c0 -5 7 -10 16 -10 8 0 12 5 9 10 -3 6 -10 10 -16 10 -5
0 -9 -4 -9 -10z"/>
<path d="M11570 1800 c0 -5 5 -10 10 -10 6 0 10 5 10 10 0 6 -4 10 -10 10 -5
0 -10 -4 -10 -10z"/>
<path d="M10015 1790 c-4 -7 -3 -16 3 -22 14 -14 45 -2 40 15 -6 16 -34 21
-43 7z"/>
<path d="M3620 1760 c0 -13 7 -20 20 -20 13 0 20 7 20 20 0 13 -7 20 -20 20
-13 0 -20 -7 -20 -20z"/>
<path d="M7531 1753 c-15 -12 -20 -24 -16 -36 9 -23 30 -22 56 4 37 37 2 66
-40 32z"/>
<path d="M14206 1754 c-9 -8 -16 -21 -16 -28 0 -16 45 -40 58 -32 20 12 5 76
-19 76 -4 0 -15 -7 -23 -16z"/>
<path d="M2244 1749 c-10 -17 13 -36 27 -22 12 12 4 33 -11 33 -5 0 -12 -5
-16 -11z"/>
<path d="M8671 1736 c-23 -24 -23 -25 -5 -55 31 -53 90 -48 114 10 13 29 12
33 -9 50 -32 26 -73 24 -100 -5z"/>
<path d="M11122 1748 c-16 -16 -15 -29 4 -56 l15 -22 30 20 c34 25 37 45 10
60 -26 13 -44 13 -59 -2z"/>
<path d="M1574 1735 c-4 -9 -19 -15 -36 -15 -42 0 -82 -42 -73 -78 3 -15 16
-37 28 -49 22 -22 23 -22 60 -5 39 18 43 26 51 110 4 42 2 52 -10 52 -8 0 -17
-7 -20 -15z"/>
<path d="M6636 1731 c-4 -7 -5 -15 -2 -18 9 -9 19 4 14 18 -4 11 -6 11 -12 0z"/>
<path d="M9814 1726 c-9 -24 3 -46 26 -46 17 0 21 5 18 27 -3 31 -34 44 -44
19z"/>
<path d="M10027 1673 c-18 -61 -8 -80 42 -78 36 1 36 2 35 43 -1 43 -25 82
-50 82 -7 0 -20 -21 -27 -47z"/>
<path d="M1890 1700 c0 -5 7 -10 16 -10 8 0 12 5 9 10 -3 6 -10 10 -16 10 -5
0 -9 -4 -9 -10z"/>
<path d="M5994 1699 c-9 -15 11 -33 30 -26 9 4 13 13 10 22 -7 17 -30 20 -40
4z"/>
<path d="M3290 1680 c0 -5 5 -10 10 -10 6 0 10 5 10 10 0 6 -4 10 -10 10 -5 0
-10 -4 -10 -10z"/>
<path d="M3532 1674 c-45 -31 -18 -108 43 -120 25 -4 36 0 58 22 34 33 34 45
1 83 -29 35 -66 40 -102 15z"/>
<path d="M10415 1646 c-23 -16 -14 -46 14 -46 21 0 54 38 45 52 -8 12 -38 10
-59 -6z"/>
<path d="M3340 1635 c-18 -22 -1 -50 31 -50 20 0 24 5 24 30 0 23 -5 31 -21
33 -11 2 -27 -4 -34 -13z"/>
<path d="M10790 1640 c0 -5 5 -10 10 -10 6 0 10 5 10 10 0 6 -4 10 -10 10 -5
0 -10 -4 -10 -10z"/>
<path d="M11038 1632 c-52 -32 -28 -106 39 -118 32 -6 40 -3 60 20 30 35 29
54 -4 88 -31 32 -56 35 -95 10z"/>
<path d="M9520 1620 c0 -5 5 -10 10 -10 6 0 10 5 10 10 0 6 -4 10 -10 10 -5 0
-10 -4 -10 -10z"/>
<path d="M10846 1594 c-12 -11 -13 -20 -6 -34 17 -31 32 -34 51 -11 33 41 -9
82 -45 45z"/>
<path d="M2050 1580 c-14 -26 -5 -57 19 -65 42 -13 72 26 51 65 -14 26 -56 26
-70 0z"/>
<path d="M8882 1583 c2 -10 10 -18 18 -18 8 0 16 8 18 18 2 12 -3 17 -18 17
-15 0 -20 -5 -18 -17z"/>
<path d="M14592 1557 c-27 -28 -28 -49 -4 -70 36 -33 92 -13 92 32 0 30 -27
61 -52 61 -8 0 -24 -10 -36 -23z"/>
<path d="M1595 1561 c-8 -15 3 -31 21 -31 9 0 14 7 12 17 -4 20 -24 28 -33 14z"/>
<path d="M7010 1560 c0 -5 5 -10 10 -10 6 0 10 5 10 10 0 6 -4 10 -10 10 -5 0
-10 -4 -10 -10z"/>
<path d="M7260 1549 c-13 -23 1 -49 26 -49 24 0 36 37 18 54 -21 21 -31 20
-44 -5z"/>
<path d="M10326 1546 c3 -9 11 -16 16 -16 13 0 5 23 -10 28 -7 2 -10 -2 -6
-12z"/>
<path d="M1770 1534 c0 -8 5 -12 10 -9 6 4 8 11 5 16 -9 14 -15 11 -15 -7z"/>
<path d="M6411 1536 c-17 -20 -4 -56 18 -56 28 0 47 28 34 48 -14 23 -37 26
-52 8z"/>
<path d="M11497 1522 c-22 -11 -28 -19 -23 -35 3 -12 6 -30 6 -39 0 -12 8 -18
25 -18 29 0 47 28 34 53 -6 9 -8 21 -5 25 12 19 -10 27 -37 14z"/>
<path d="M1680 1515 c-10 -12 -10 -21 -1 -41 13 -29 47 -30 65 -1 23 37 -36
76 -64 42z"/>
<path d="M6907 1524 c-4 -4 -7 -16 -7 -26 0 -14 6 -19 23 -16 14 2 22 10 22
23 0 20 -25 32 -38 19z"/>
<path d="M13537 1505 c-9 -22 3 -46 22 -43 10 2 16 13 16 28 0 28 -29 40 -38
15z"/>
<path d="M3422 1488 c2 -13 10 -23 18 -23 8 0 16 10 18 23 3 17 -2 22 -18 22
-16 0 -21 -5 -18 -22z"/>
<path d="M5384 1489 c-9 -15 11 -33 30 -26 9 4 13 13 10 22 -7 17 -30 20 -40
4z"/>
<path d="M5862 1488 c-32 -32 4 -74 53 -62 35 9 32 40 -5 59 -35 18 -33 18
-48 3z"/>
<path d="M10334 1485 c-8 -19 2 -45 16 -45 5 0 10 14 10 30 0 31 -16 41 -26
15z"/>
<path d="M1600 1470 c0 -5 5 -10 10 -10 6 0 10 5 10 10 0 6 -4 10 -10 10 -5 0
-10 -4 -10 -10z"/>
<path d="M6826 1465 c-6 -17 17 -31 34 -20 5 3 10 13 10 21 0 19 -36 18 -44
-1z"/>
<path d="M1336 1463 c-12 -12 -6 -33 9 -33 8 0 15 6 15 14 0 17 -14 28 -24 19z"/>
<path d="M10927 1463 c-4 -3 -7 -16 -7 -29 0 -15 -12 -29 -36 -44 -27 -15 -34
-24 -26 -32 8 -8 22 -5 52 10 22 11 50 17 62 14 19 -5 21 -2 15 28 -10 50 -39
75 -60 53z"/>
<path d="M9302 1438 c-21 -21 -8 -68 19 -68 10 0 39 30 39 40 0 10 -29 40 -39
40 -4 0 -12 -5 -19 -12z"/>
<path d="M6005 1420 c3 -5 8 -10 11 -10 2 0 4 5 4 10 0 6 -5 10 -11 10 -5 0
-7 -4 -4 -10z"/>
<path d="M9803 1423 c-7 -2 -13 -11 -13 -19 0 -10 -13 -14 -45 -14 -39 0 -47
-4 -57 -26 -16 -34 0 -59 38 -59 23 0 32 7 44 31 8 17 28 36 43 42 19 7 28 17
25 28 -3 19 -16 25 -35 17z"/>
<path d="M10730 1410 c0 -5 5 -10 11 -10 5 0 7 5 4 10 -3 6 -8 10 -11 10 -2 0
-4 -4 -4 -10z"/>
<path d="M6632 1398 c-19 -19 -14 -56 9 -68 16 -9 26 -8 45 5 39 26 26 75 -21
75 -12 0 -26 -5 -33 -12z"/>
<path d="M8273 1384 c-3 -8 -1 -20 5 -26 15 -15 43 8 35 28 -7 19 -32 18 -40
-2z"/>
<path d="M8741 1372 c-13 -25 5 -52 34 -52 56 0 72 27 33 54 -30 21 -55 20
-67 -2z"/>
<path d="M10473 1362 c-34 -5 -63 -48 -63 -93 0 -43 -12 -49 -49 -23 -21 15
-25 15 -56 -2 -39 -21 -48 -46 -34 -97 11 -40 33 -57 73 -57 13 0 31 -7 40
-15 8 -8 22 -15 31 -15 20 0 31 28 16 43 -12 12 -15 46 -5 71 4 10 18 16 38
16 23 0 40 9 65 35 18 19 39 35 47 35 18 0 18 21 -1 46 -8 10 -15 26 -15 35 0
17 -42 27 -87 21z"/>
<path d="M7408 1344 c-24 -13 -28 -21 -28 -59 0 -98 112 -128 152 -40 15 33
-6 81 -43 100 -35 18 -47 18 -81 -1z"/>
<path d="M7003 1324 c-7 -20 12 -33 38 -27 23 6 25 29 3 37 -25 9 -34 7 -41
-10z"/>
<path d="M13623 1332 c-11 -7 -17 -26 -14 -49 0 -6 14 -16 30 -21 41 -14 58 5
39 45 -14 29 -35 38 -55 25z"/>
<path d="M6005 1320 c-4 -6 -3 -16 3 -22 6 -6 12 -6 17 2 4 6 3 16 -3 22 -6 6
-12 6 -17 -2z"/>
<path d="M6790 1320 c0 -5 5 -10 11 -10 5 0 7 5 4 10 -3 6 -8 10 -11 10 -2 0
-4 -4 -4 -10z"/>
<path d="M8890 1320 c0 -5 5 -10 10 -10 6 0 10 5 10 10 0 6 -4 10 -10 10 -5 0
-10 -4 -10 -10z"/>
<path d="M11117 1314 c-19 -10 -27 -21 -23 -31 3 -8 6 -17 6 -19 0 -2 15 -4
33 -4 26 0 36 6 45 24 7 17 7 27 -1 35 -14 14 -26 13 -60 -5z"/>
<path d="M9265 1300 c3 -5 8 -10 11 -10 2 0 4 5 4 10 0 6 -5 10 -11 10 -5 0
-7 -4 -4 -10z"/>
<path d="M9532 1303 c-40 -16 -32 -83 11 -83 47 0 67 40 37 70 -21 21 -26 22
-48 13z"/>
<path d="M6820 1290 c0 -5 5 -10 11 -10 5 0 7 5 4 10 -3 6 -8 10 -11 10 -2 0
-4 -4 -4 -10z"/>
<path d="M10056 1285 c4 -8 15 -15 26 -15 17 0 18 3 8 15 -7 8 -19 15 -26 15
-8 0 -11 -6 -8 -15z"/>
<path d="M10127 1283 c-4 -3 -7 -11 -7 -17 0 -6 5 -5 12 2 6 6 9 14 7 17 -3 3
-9 2 -12 -2z"/>
<path d="M9897 1233 c-4 -3 -7 -15 -7 -25 0 -12 7 -18 24 -18 32 0 40 14 20
34 -17 17 -27 20 -37 9z"/>
<path d="M3027 1224 c-12 -12 -8 -41 9 -54 22 -19 54 12 38 38 -12 19 -36 27
-47 16z"/>
<path d="M12075 1220 c3 -5 10 -10 16 -10 5 0 9 5 9 10 0 6 -7 10 -16 10 -8 0
-12 -4 -9 -10z"/>
<path d="M8892 1204 c1 -9 9 -19 16 -22 9 -3 13 2 10 14 -1 9 -9 19 -16 22 -9
3 -13 -2 -10 -14z"/>
<path d="M9675 1210 c-3 -5 -1 -10 4 -10 6 0 11 5 11 10 0 6 -2 10 -4 10 -3 0
-8 -4 -11 -10z"/>
<path d="M14140 1205 c0 -8 7 -15 15 -15 8 0 15 7 15 15 0 8 -7 15 -15 15 -8
0 -15 -7 -15 -15z"/>
<path d="M5996 1194 c-19 -19 -20 -44 -3 -68 11 -14 21 -17 46 -11 62 13 63
95 1 95 -16 0 -36 -7 -44 -16z"/>
<path d="M10850 1200 c0 -5 7 -10 16 -10 8 0 12 5 9 10 -3 6 -10 10 -16 10 -5
0 -9 -4 -9 -10z"/>
<path d="M10529 1174 c-16 -20 0 -49 27 -49 27 0 31 41 6 54 -15 8 -23 7 -33
-5z"/>
<path d="M6247 1166 c-29 -22 -19 -67 17 -79 25 -8 32 -7 48 13 23 28 23 35
-2 60 -23 23 -38 25 -63 6z"/>
<path d="M11071 1166 c-15 -18 2 -56 25 -56 24 0 28 30 7 51 -17 18 -21 18
-32 5z"/>
<path d="M13653 1173 c-22 -8 -15 -43 7 -43 13 0 20 7 20 19 0 22 -9 30 -27
24z"/>
<path d="M8897 1143 c-4 -3 -7 -15 -7 -25 0 -11 -6 -26 -14 -34 -12 -11 -13
-21 -4 -44 8 -25 15 -30 42 -30 18 0 37 5 44 12 19 19 14 66 -8 80 -11 7 -20
21 -20 30 0 18 -20 24 -33 11z"/>
<path d="M8130 1095 c0 -8 9 -15 20 -15 11 0 20 7 20 15 0 8 -9 15 -20 15 -11
0 -20 -7 -20 -15z"/>
<path d="M11222 1094 c-27 -19 -28 -34 -2 -34 11 0 25 -9 32 -20 17 -26 25
-25 30 5 4 16 -2 31 -16 44 -20 19 -24 19 -44 5z"/>
<path d="M5752 1090 c-31 -13 -46 -56 -31 -92 13 -31 45 -44 87 -34 15 4 40
10 55 13 45 9 43 29 -7 78 -47 46 -63 51 -104 35z"/>
<path d="M6484 1089 c-4 -7 -7 -25 -6 -41 0 -21 -6 -32 -26 -42 -29 -15 -59
-47 -79 -83 -41 -73 35 -179 123 -171 21 1 38 -3 43 -11 12 -19 33 -3 26 20
-4 13 2 30 19 50 43 51 29 142 -29 187 -21 17 -26 27 -21 46 3 13 3 32 0 40
-7 19 -40 21 -50 5z"/>
<path d="M11530 1087 c0 -8 6 -20 14 -27 8 -6 12 -18 9 -26 -3 -8 0 -14 6 -14
6 0 11 5 11 10 0 6 6 10 14 10 21 0 40 26 25 35 -6 4 -15 1 -20 -6 -8 -14 -24
-5 -24 14 0 7 -8 13 -17 15 -11 2 -18 -3 -18 -11z"/>
<path d="M9131 1056 c-7 -8 -11 -27 -9 -42 5 -48 78 -51 91 -5 11 45 -53 82
-82 47z"/>
<path d="M9882 1044 c4 -21 22 -23 26 -1 2 10 -3 17 -13 17 -10 0 -15 -6 -13
-16z"/>
<path d="M11449 1044 c-11 -14 -11 -18 2 -28 8 -6 25 -27 37 -46 l23 -35 -6
42 c-5 34 -3 43 12 51 16 10 15 12 -10 21 -37 14 -42 14 -58 -5z"/>
<path d="M12584 1035 c-10 -25 4 -45 30 -45 27 0 42 26 25 46 -15 19 -48 18
-55 -1z"/>
<path d="M11200 1010 c0 -33 11 -38 30 -15 10 12 10 18 0 30 -19 23 -30 18
-30 -15z"/>
<path d="M9371 972 c-6 -10 -7 -28 -4 -40 3 -14 1 -22 -7 -22 -41 0 -110 -90
-110 -146 0 -61 82 -133 136 -120 13 4 33 1 43 -6 24 -15 39 -4 22 15 -9 11
-5 22 19 52 46 58 36 129 -28 189 -26 24 -29 32 -21 48 6 11 8 26 5 34 -8 20
-43 17 -55 -4z"/>
<path d="M9885 970 c-3 -5 -1 -10 4 -10 6 0 11 5 11 10 0 6 -2 10 -4 10 -3 0
-8 -4 -11 -10z"/>
<path d="M6973 944 c-6 -16 15 -37 29 -28 4 3 8 14 8 25 0 23 -28 26 -37 3z"/>
<path d="M8757 914 c-14 -15 -6 -34 14 -34 14 0 19 5 17 17 -3 18 -20 27 -31
17z"/>
<path d="M6640 860 c0 -5 5 -10 10 -10 6 0 10 5 10 10 0 6 -4 10 -10 10 -5 0
-10 -4 -10 -10z"/>
<path d="M6882 854 c-32 -22 -30 -76 4 -103 35 -28 69 -26 99 4 32 31 31 46
-1 84 -29 35 -66 40 -102 15z"/>
<path d="M11139 851 c-27 -22 -20 -36 25 -47 22 -5 27 -4 21 6 -5 8 -1 18 9
26 10 7 15 17 11 23 -10 17 -40 13 -66 -8z"/>
<path d="M11865 850 c-8 -13 20 -24 41 -16 20 8 9 26 -16 26 -10 0 -22 -5 -25
-10z"/>
<path d="M9862 833 c5 -26 38 -29 38 -4 0 15 -6 21 -21 21 -14 0 -19 -5 -17
-17z"/>
<path d="M10852 838 c-17 -17 -15 -38 3 -45 9 -3 22 -18 31 -34 18 -35 49 -40
40 -6 -3 12 -6 31 -6 42 0 27 -52 59 -68 43z"/>
<path d="M12080 830 c0 -5 7 -10 15 -10 8 0 15 5 15 10 0 6 -7 10 -15 10 -8 0
-15 -4 -15 -10z"/>
<path d="M6690 809 c-10 -18 -9 -25 8 -42 18 -17 23 -18 37 -7 9 8 15 24 13
39 -4 35 -42 41 -58 10z"/>
<path d="M8950 811 c0 -10 7 -24 16 -31 12 -11 18 -10 31 3 21 21 9 47 -22 47
-18 0 -25 -5 -25 -19z"/>
<path d="M9921 798 c-5 -13 -5 -27 0 -32 9 -10 -7 -46 -21 -46 -6 0 -10 9 -10
20 0 18 -7 20 -53 20 -40 0 -58 -5 -70 -18 -32 -35 -20 -85 25 -108 35 -18 61
-11 88 24 16 20 32 27 62 29 40 3 68 17 68 34 0 5 -14 16 -31 25 -23 11 -28
19 -20 27 16 16 14 25 -9 37 -17 9 -22 7 -29 -12z"/>
<path d="M10202 808 c6 -18 28 -21 28 -4 0 9 -7 16 -16 16 -9 0 -14 -5 -12
-12z"/>
<path d="M10360 811 c0 -21 13 -41 26 -41 15 0 17 10 8 34 -7 17 -34 22 -34 7z"/>
<path d="M10790 812 c0 -5 7 -17 15 -28 14 -18 14 -18 15 9 0 17 -5 27 -15 27
-8 0 -15 -4 -15 -8z"/>
<path d="M12141 784 c0 -11 3 -14 6 -6 3 7 2 16 -1 19 -3 4 -6 -2 -5 -13z"/>
<path d="M11354 761 c-65 -16 -70 -33 -20 -73 23 -19 47 -28 70 -28 36 0 36 0
36 43 0 37 -4 46 -25 55 -14 7 -27 12 -28 11 -1 -1 -16 -4 -33 -8z"/>
<path d="M9525 750 c4 -6 11 -8 16 -5 14 9 11 15 -7 15 -8 0 -12 -5 -9 -10z"/>
<path d="M8362 741 c4 -13 18 -16 19 -4 0 4 -5 9 -11 12 -7 2 -11 -2 -8 -8z"/>
<path d="M9510 714 c0 -8 5 -12 10 -9 6 3 10 10 10 16 0 5 -4 9 -10 9 -5 0
-10 -7 -10 -16z"/>
<path d="M9575 699 c-10 -30 18 -58 43 -43 9 6 17 22 17 35 0 34 -50 41 -60 8z"/>
<path d="M12655 700 c-23 -26 -12 -50 29 -65 34 -12 46 4 37 48 -8 39 -39 47
-66 17z"/>
<path d="M6774 675 c-7 -18 3 -35 22 -35 8 0 14 10 14 25 0 27 -27 35 -36 10z"/>
<path d="M10473 673 c-18 -7 -16 -23 2 -23 8 0 15 7 15 15 0 8 -1 15 -2 14 -2
0 -9 -3 -15 -6z"/>
<path d="M8441 641 c-37 -52 4 -108 54 -75 33 21 40 50 21 79 -22 33 -50 31
-75 -4z"/>
<path d="M8592 584 c-29 -20 -28 -45 3 -78 30 -32 49 -33 80 -1 29 28 31 42 9
73 -18 26 -59 29 -92 6z"/>
<path d="M9667 593 c-4 -3 -7 -17 -7 -30 0 -16 6 -23 19 -23 23 0 32 19 19 43
-9 18 -20 22 -31 10z"/>
<path d="M9730 565 c-11 -13 -11 -19 3 -32 21 -21 49 -9 45 19 -4 28 -30 35
-48 13z"/>
<path d="M11070 571 c0 -5 -13 -14 -30 -20 -16 -5 -30 -14 -30 -18 0 -18 52
-83 66 -83 27 0 41 84 19 120 -8 12 -25 13 -25 1z"/>
<path d="M10690 521 c-35 -35 -44 -51 -28 -50 16 1 72 66 61 71 -4 3 -19 -7
-33 -21z"/>
<path d="M9950 530 c0 -5 4 -10 9 -10 6 0 13 5 16 10 3 6 -1 10 -9 10 -9 0
-16 -4 -16 -10z"/>
<path d="M13056 517 c-13 -12 -27 -32 -31 -44 -13 -48 72 -85 109 -47 52 51
-24 140 -78 91z"/>
<path d="M10328 483 c-9 -10 -13 -24 -11 -30 10 -29 73 -2 73 31 0 22 -42 21
-62 -1z"/>
<path d="M9435 461 c-6 -11 9 -23 19 -14 9 9 7 23 -3 23 -6 0 -12 -4 -16 -9z"/>
<path d="M8804 435 c-3 -8 -3 -19 0 -24 9 -13 36 -2 36 14 0 19 -30 27 -36 10z"/>
<path d="M6370 376 c0 -29 28 -42 48 -22 20 20 8 46 -23 46 -20 0 -25 -5 -25
-24z"/>
<path d="M10531 376 c-9 -11 -6 -22 11 -49 26 -41 43 -46 58 -18 14 27 14 25
-24 55 -28 21 -36 23 -45 12z"/>
<path d="M11450 366 c-9 -12 -7 -21 11 -45 26 -36 27 -36 49 -16 16 15 16 18
-8 45 -30 34 -35 36 -52 16z"/>
<path d="M9820 294 c0 -8 5 -12 10 -9 6 4 8 11 5 16 -9 14 -15 11 -15 -7z"/>
<path d="M9240 291 c-18 -5 -26 -15 -28 -35 -5 -44 10 -51 62 -28 46 21 56 38
34 60 -13 13 -29 14 -68 3z"/>
<path d="M12078 279 c-10 -5 -18 -21 -18 -35 0 -19 8 -28 35 -40 44 -18 55
-12 55 30 0 50 -31 69 -72 45z"/>
<path d="M9712 258 c-27 -27 -10 -51 26 -37 19 7 21 12 12 29 -12 23 -21 25
-38 8z"/>
<path d="M8192 213 c2 -10 10 -18 18 -18 8 0 16 8 18 18 2 12 -3 17 -18 17
-15 0 -20 -5 -18 -17z"/>
<path d="M8655 210 c-9 -28 11 -50 45 -50 41 0 54 22 29 48 -26 28 -65 29 -74
2z"/>
<path d="M9633 204 c-3 -8 0 -21 6 -27 10 -9 16 -8 27 7 11 16 11 22 1 28 -18
12 -27 10 -34 -8z"/>
<path d="M10856 148 c-8 -38 8 -59 28 -38 17 18 10 70 -9 70 -7 0 -15 -14 -19
-32z"/>
<path d="M12595 161 c-9 -16 3 -31 26 -31 14 0 19 6 17 17 -4 20 -33 29 -43
14z"/>
<path d="M9442 134 c-37 -26 -23 -74 23 -74 44 0 63 60 26 80 -25 13 -22 13
-49 -6z"/>
<path d="M12102 118 c-28 -28 2 -67 34 -43 15 11 17 18 8 31 -14 23 -27 27
-42 12z"/>
<path d="M10213 80 c-26 -15 -33 -27 -33 -50 l0 -30 80 0 c44 0 80 4 80 10 0
25 -25 59 -56 74 -42 19 -33 20 -71 -4z"/>
<path d="M9808 68 c-8 -21 2 -38 22 -38 25 0 35 17 20 35 -15 18 -36 19 -42 3z"/>
<path d="M8802 48 c6 -18 28 -21 28 -4 0 9 -7 16 -16 16 -9 0 -14 -5 -12 -12z"/>
<path d="M9590 50 c0 -5 5 -10 10 -10 6 0 10 5 10 10 0 6 -4 10 -10 10 -5 0
-10 -4 -10 -10z"/>
<path d="M9620 20 c0 -5 5 -10 10 -10 6 0 10 5 10 10 0 6 -4 10 -10 10 -5 0
-10 -4 -10 -10z"/>
</g>
</svg>
